<?xml version="1.0" encoding="utf-8"?>
<!-- Generator: Adobe Illustrator 19.0.0, SVG Export Plug-In . SVG Version: 6.00 Build 0)  -->
<svg >
<path d="M2.1,55.1c2.5,0.1,5.2-0.1,6.1,1.5c-0.2,0.2-0.3,0.3-0.5,0.5C6.6,56.9,3,57,1.1,56.6c-0.4-1.1-0.5-2.8-0.5-4.6
	c1.2-1.3,1.1-2.3,3.1-3.1c1.4-1,4.1-0.4,5.6,0c0.8,2.3,2.6,3.9,3.1,6.6c1.5,9.2-6.6,17.1-8.7,23.5c-1.9,5.6,0.9,9.2,1.5,14.3
	c-0.3,0-0.7,0-1,0c0-0.2,0-0.3,0-0.5c-2.5-3.2-2.8-12-1-16.4c3.7-9,10.8-14.8,5.6-26.1c-1.5-0.2-3.1-0.3-4.6-0.5
	c-0.7,0.9-1,0.9-1.5,2C2.1,52.7,2.1,53.7,2.1,55.1z M94.1,53.5c2.3-0.1,3.9,0.1,5.1,1c3.7,1.2,6.1,5.3,6.1,10.2
	c-0.8,0.9-1.2,2.2-1.5,3.6c-2.8,1.8-4,3.5-8.7,3.6c-2.3-1.5-5.4-1.5-6.6-4.1c-0.4-0.6-0.4-0.9-0.5-2c0.6-0.3,1.1-0.6,1.5-1
	c1.8,0.5,2.5,0.9,5.1,1c0.7-1.1,1.1-1.2,1.5-2.6c1-1.1-1.2-3.7-3.1-4.1c-1.4-0.7-2.2,0.2-4.1,0.5c-0.5-0.9-0.6-0.9-1-2
	c0.2,0,0.3,0,0.5,0C89.7,55.1,92,55.1,94.1,53.5z M102.8,63.8c-0.3,2.6-1.3,4.4-3.6,5.1c-1.5,1.2-4.1,1.2-5.6,0c-0.3,0-0.7,0-1,0
	c1.3-1,3.7-1.9,5.1-2.6c0.5-1.8,1.8-4.3,0.5-6.1c-0.8-2.5-3.1-3.4-5.1-3.1c0.6-1.1,0.7-0.8,1.5-1.5C98.5,56.2,104.7,61.2,102.8,63.8
	z M47.1,61.2c1.2-0.2,2.4-0.3,3.6-0.5c0,0.3,0,0.7,0,1c1.3,2.1,0.6,5,1.5,7.7c2.2,6.4,5.1,13.6,7.7,19.4c1.1,2.4,1.1,5.1,2.6,7.2
	c3.4,4.8,6.7,10.4,10.2,15.3c2.1,3,5.7,3.9,6.1,8.7c-0.9,0.3-0.5,0.1-1,0.5c-0.9-0.3-0.5-0.1-1-0.5c-3.6-1.3-5-5.8-7.2-8.7
	c-1.2-1.2-2.4-2.4-3.6-3.6c-2-2.9-2.9-7.1-5.6-9.2c-1.5-1.1-3.1-1.5-4.6-2.6c-1.3-1-1.4-2.1-2.6-2c-1.9,2.2-1.8,6.9-5.1,7.7
	c-0.7-1.9-1.3-5.6-2.6-7.2c0,0.2,0,0.3,0,0.5c-1.3,1.3-0.7,2.1-3.1,2.6c-0.3-1-0.7-2-1-3.1c-1,0.4-1.4,0.7-2.6,1
	c-0.7,1.2-1.4,2.4-2,3.6c0.3,0,0.7,0,1,0c0.4-1.7,0.5-1.9,2-2.6c0,0.5,0,1,0,1.5c-0.7,0.8-1.1,2-1.5,3.1c-0.3,0-0.7,0-1,0
	c-0.4-1.7,0.3-0.8-1-1.5c0,0.2,0,0.3,0,0.5c-2.2,1.7-6,8.7-7.7,11.2c-0.9-0.3-0.5-0.1-1-0.5c-1.3-0.7-0.8-0.2-1-2
	c2.8-2.8,4-6.7,6.1-10.2C39.2,88.2,45.8,76.5,47.1,61.2z M49.1,69.4c4.1,5.2,3.8,18,8.7,23.5c0,0.3,0,0.7,0,1
	c-2.2-0.7-3.5-2.8-4.6-4.6c-0.5,0-1,0-1.5,0c-0.1,3-1,5.6-2.6,7.2c0,0.3,0,0.7,0,1c-1.7-2.4-0.5-6-3.6-7.2c-1.6,1.8-1.5,1.7-4.1,1.5
	C42.5,84,48.1,78.2,49.1,69.4z M10.8,83.2c2,0.2,2.2,0.3,4.1,0c0.7-1.3,1-1.8,1-4.1c-0.8-0.8-0.4-0.9-1.5-1.5
	c-0.9-0.6-2.9-0.6-4.6-0.5c-0.4,0.7-0.9,1.5-1.5,2c-0.2,2.7-0.3,5.5-0.5,8.2c1.6,5.9,5.4,10.5,5.6,18.4c0.1,5.1-3.4,9.8-5.1,13.3
	c-0.5,0-1,0-1.5,0c0-0.3,0-0.7,0-1c4.9-3.7,6.5-15,3.6-22c-0.9-2.2-2.9-4.8-3.6-7.2c-1.2-4.4,0.3-8.2,1-11.8
	c1.4-0.9,1.3-1.3,3.6-1.5c1.4-0.9,3.4,0.1,5.1,0.5c0.3,0.8,0.4,1.2,0.5,2.6c1.4,1.9,0.2,4.7-1,5.6c-1.5,1.2-3.1,0.9-5.1,0.5
	C10.8,84.2,10.8,83.7,10.8,83.2z M89,114.9c-1.3-0.1-1.7-0.2-2.6-0.5c0,0.7,0,1.4,0,2c1.9,1.1,4.3,2.8,4.6,5.6c-2.8,0-3-0.6-4.6-1.5
	c0,0.7,0,1.4,0,2c1.9,2.1,4.4,4.1,4.6,7.7c-2.6-0.2-2.5-1-4.1-2c0,0.3,0,0.7,0,1c-0.1,0.3,0,1.9,0,3.6c1.9,1.2,4.1,3,4.6,5.6
	c-0.9,0.3-1.6,0.5-3.1,0.5c-0.5-0.5-1-1-1.5-1.5c0,0.3,0,0.7,0,1c0.9,1.4,1.1,8.7,0,11.8c0.5,0,1,0,1.5,0c1-0.6,12.5,0.5,16.4,0.5
	c-0.2-3.7-0.3-7.5-0.5-11.2c-0.2,0-0.3,0-0.5,0c-0.7,0.9-1.4,1.1-2.6,1.5c-0.3-0.9-0.1-0.5-0.5-1c0.3-0.9,0.1-0.5,0.5-1
	c1.3-2.6,2.9-2.4,3.1-6.6c-0.2,0-0.3,0-0.5,0c-0.8,0.8-1,0.8-2.6,1c-0.2-0.5-0.3-1-0.5-1.5c1.6-1.5,3.2-3.4,3.6-6.1
	c-0.3-0.4-0.7-1.1-1-1.5c-0.7,1.7-0.4,1.3-2.6,1.5c-0.3-0.8-0.3-0.9-0.5-2c1.8-1.3,2.9-3.1,3.1-6.1c-0.3,0-0.7,0-1,0
	c-0.6,0.4-0.9,0.4-2,0.5c0.6-3.7,2.8-3.4,3.1-7.7c-0.2,0-0.3,0-0.5,0c-1,0.8-1.1,1-2,0.5c-1.3-0.7-0.3,0.2-1-1
	c1.8-1.7,3.8-4,4.1-7.2c-0.2,0-0.3,0-0.5,0c-0.9,1.1-1.2,1.3-3.1,1.5c-0.3-0.8-0.3-0.9-0.5-2c2.2-1.5,2.5-4,5.6-4.6
	c2,2.2,4.4,4.2,5.6,7.2c-0.2,0-0.3,0-0.5,0c-0.7,0.4-1.3,0.5-2.6,0.5c-0.3-0.3-0.7-0.7-1-1c0,1,0,2,0,3.1c2.2,1.2,4.3,1.8,4.6,5.1
	c-2-0.2-3.1-0.8-4.6-1.5c0,1,0,2,0,3.1c1.9,1.2,4.1,3,4.6,5.6c-2-0.2-3.1-0.8-4.6-1.5c0,0.9,0,1.7,0,2.6c0.4,0.5,0.2,0.1,0.5,1
	c2.4,0.7,4.5,1.9,4.6,5.1c-2.4-0.1-2.9-0.6-4.6-1c0,0.2,0,0.3,0,0.5c0.6,1,0.3,0.9,0,2c2.7,0.7,4,1.7,4.6,4.6c-0.9,0-1.7,0-2.6,0
	c-0.7-0.6-0.9-0.7-2-1c0,0.9,0,1.7,0,2.6c0.4,0.6,0.4,0.9,0.5,2c2,1.2,4.3,2.5,4.6,5.6c-2.4,0-3.2-0.4-4.6-1c0,1.7,0,3.4,0,5.1
	c0.5,0.9,0.5,1.9,0.5,4.1c1,0.4,2.4,0.5,4.1,0.5c2.2-1.5,6.3,0.3,8.2,1c-0.2,0.2-0.3,0.3-0.5,0.5c-2.5,2.1-6-0.1-9.2,0.5
	c-9.3,1.7-18.4-2.5-28.1-0.5c-3,0.6-8-0.9-12.3,0c-5.5,1.2-14.8,0.9-20.4,1c-2.9-0.2-5.8-0.3-8.7-0.5c-9.2,1.7-28.4,1.9-37.8,0
	c-2.5-0.5-6.5,0.1-8.2,0.5c-2.7,0.6-4.5-0.7-6.1-1c-5-0.9-12.1,1.9-14.8,0.5c-0.4-0.5-0.3-0.5-0.5-1.5c2.4-0.3,5.2-0.5,8.2-0.5
	c0-5.1,0-10.2,0-15.3c-1.2,0.2-2.4,0.3-3.6,0.5c-0.2-0.5-0.3-1-0.5-1.5c2-1.3,3.5-2.9,3.6-6.1c-0.2,0-0.3,0-0.5,0
	c-0.9,1.1-1.4,1.6-2.6,1c-1.3-2.4,2.3-4.2,3.1-6.6c-0.2,0-0.3,0-0.5,0c-1.2,1.6-0.8,1.1-3.1,1c0.4-4.9,3.6-3,3.6-9.2
	c-0.2,0-0.3,0-0.5,0c-0.8,1.2-0.7,1.2-2.6,1.5c-0.2-0.5-0.3-1-0.5-1.5c1.7-1.6,3.2-3.8,3.6-6.6c-0.3,0-0.7,0-1,0
	c-0.6,1-0.9,1.2-2,0.5c-1.3-0.7-0.3,0.2-1-1c2-1.2,3.4-2.5,3.6-5.6c-0.2,0-0.3,0-0.5,0c-0.9,1-1.1,1-3.1,1c0-0.7,0-1.4,0-2
	c1.9-1,2.6-2.3,4.1-3.6c0-0.9,0-1.7,0-2.6c-0.2,0-0.3,0-0.5,0c-0.6,0.8-2,2.2-2.6,1.5c-0.4-0.6-0.4-0.9-0.5-2c2.2-1.6,2.4-4,5.6-4.6
	c0.8,1.1,4.9,5,4.6,5.1c0.2,0.2,0.3,0.3,0.5,0.5c-0.8,0.8-1.3,1.1-2.6,1.5c-0.3-0.3-0.7-0.7-1-1c0,0.3,0,0.7,0,1c-0.2,0-0.3,0-0.5,0
	c0.2,0.2,0.3,0.3,0.5,0.5c1,1.3,2.6,2.3,4.1,3.1c0,0.3,0,0.7,0,1c-0.5,0.5-1,1-1.5,1.5c-1.3-0.6-2-1.3-3.1-2c0,1.4,0,2.7,0,4.1
	c2.1,0.5,4.1,1.2,4.6,3.6c-0.6,0.3-1.1,0.6-1.5,1c-1.3-0.6-2.1-1.1-3.6-1.5c0,0.5,0,1,0,1.5c0.8,0.8-0.4,0.3,0.5,1
	c1.5,2,3.5,1.6,4.1,4.6c-1.2,0.5-0.8,0.5-2,1c-0.6-0.6-1.3-1.1-2-1.5c0,1.2,0,2.4,0,3.6c1.6,1.4,3.7,2.5,4.1,5.1
	c-0.8,0.3-1.2,0.4-2.6,0.5c-0.5-0.5-0.9-0.7-1.5-1c0,0.9,0,1.7,0,2.6c1.5,0.9,3.1,2.1,4.6,3.1c-0.2,0.2-0.3,0.3-0.5,0.5
	c-0.5,0.5-1,1-1.5,1.5c-0.9-0.5-1.7-1-2.6-1.5c0,1,0,2,0,3.1c1.2,0.7,2.4,1.4,3.6,2c0,0.3,0,0.7,0,1c-2,1.2-1.6,1.4-3.6,0.5
	c0,0.5,0,1,0,1.5c1.5,2.7-0.6,11.1,0.5,13.3c0,0.2,0,0.3,0,0.5c2.1-0.7,14-0.8,16.4,0c0-3.9,1.3-3.8,3.1-5.6
	c1.6,0.4,5.1,2.6,5.1,2.6c0.4-0.5,0.2-0.1,0.5-1c0.2,0,0.3,0,0.5,0c-0.2-0.2-0.3-0.3-0.5-0.5c-2.5-1.9-5.4-2-7.2-4.6
	c-1-1.2-1.1-2.8-1-5.1c0.3-0.3,0.7-0.7,1-1c1.1,0.6,1.4,1,2.6,1.5c0-0.3,0-0.7,0-1c-0.1-0.4,0-1.5,0-3.1c1.1-0.6,0.9-0.7,2.6-1
	c0.5,1.4,1,2.7,1.5,4.1c0.3-0.2,0.7-0.3,1-0.5c0.6-1.6,0.9-4.3,1.5-6.1c0.5-0.2,1-0.3,1.5-0.5c0,0.2,0,0.3,0,0.5
	c2,2,2.3,5.4,1.5,8.7c0.2,0,0.3,0,0.5,0c0.8-1.5,1.6-3.1,3.6-3.6c0.2,0.9,0.2,3.3,0.2,5.5c-1.4,1-2.1,3.2-3.6,4.1
	c-1.3,0.8-2.5,0.6-3.6,1.5c2,0.3,7.7,1.5,7.7,1.5c1-1,1.9-2.2,3.1-1.5c1.8,1.1,2.5,1.7,2.6,4.6c-0.2,0.2-0.3,0.3-0.5,0.5
	c1.7,0,3.4,0,5.1,0c0-0.3,0-0.7,0-1c1.7-2.6,3.3-11.1,3.6-14.8c-0.2,0-0.3,0-0.5,0c0,0.3,0,0.7,0,1c-2.3,1.5-3.7,3.7-6.6,4.6
	c0-0.5,0-1,0-1.5c3.5-1.1,4.4-4.3,7.7-5.1c0.2-2.8,1.6-5,2-7.2c0.6-2.6-0.9-3.5-1-6.1c0.3,0,0.7,0,1,0c0.6,1.3,0.7,1.9,2,2.6
	c0.6-1.1,0.8-1.5,2-2c0,0.2,0,0.3,0,0.5c1.4,1.9,1,1.6,5.6,1.5c1.6-1,15.4-0.1,19.4,0c-0.4-1.5-1-2.1,0.5-3.1c0,0.2,0,0.3,0,0.5
	c1,0.9,1.5,2.3,2,3.6c0.9-0.9,1.5-1.9,2-3.1c0.5,0.2,1,0.3,1.5,0.5c0,0.5,0,1,0,1.5c-0.9,0.9-1.7,1.7-2.6,2.6
	c2.7,7.6,4.9,15.8,6.6,24c2.6,0,5.1,0,7.7,0c0.4-3.7,0-9.2,0-14.3c-0.2,0-0.3,0-0.5,0c-0.9,1.3-0.9,1.3-3.1,1.5
	c-0.3-0.8-0.3-0.9-0.5-2c1.5-0.9,2.9-2.2,3.6-4.1c0.3-0.5,0.1-1.7-0.5-2.6c-1,0.8-1.1,1-2,0.5c-0.4-0.6-0.4-0.9-0.5-2
	c2-1.3,3-3.3,3.1-6.6c-0.2,0-0.3,0-0.5,0c-0.9,1.1-1.2,1.3-3.1,1.5c-0.2-0.5-0.3-1-0.5-1.5c2.5-2.3,3.3-4.9,4.1-7.7
	c-0.2,0-0.3,0-0.5,0c-0.6,1.2-1.2,1.6-2,2.6c-0.5-0.2-1-0.3-1.5-0.5c0-0.7,0-1.4,0-2c2-1.3,3.4-2.9,3.6-6.1c-0.3,0-0.7,0-1,0
	c-1.3,1-0.8,0.7-2.6,0.5c0-0.7,0-1.4,0-2c1.9-1.3,3.4-3.7,4.1-6.1c-0.2,0-0.3,0-0.5,0c-0.9,1-0.7,0.9-2.6,1c-0.2-0.5-0.3-1-0.5-1.5
	c0.2,0,0.3,0,0.5,0c1-2.3,2.3-2.2,2.6-5.6c-0.2,0-0.3,0-0.5,0c-0.9,1-1.1,1-3.1,1c0.4-2.9,3.2-7.6,6.1-8.2c1.6,2.4,8.2,8,3.1,9.2
	c-0.9-0.9-1.7-1.7-2.6-2.6c0,0.9,0,1.7,0,2.6c1.2,1.2,3.9,4.2,3.6,5.1c-0.6,1.6-0.2,1.2-2,1.5c-0.3-0.3-0.7-0.7-1-1c0,0.5,0,1,0,1.5
	c1.5,0.8,3.3,1.9,4.1,3.6c-0.4,0.5-0.7,1.4-1,2c-1.3-0.6-2-1.3-3.1-2c-0.2,1.5-0.3,3.1-0.5,4.6C87.9,111.3,88.9,111.7,89,114.9z
	 M18.5,94.9c0-0.5,0-1,0-1.5c0.7,0,1.4,0,2,0c0.3-0.8,0.4-1.2,0.5-2.6c-0.4-0.5-0.2-0.1-0.5-1c-1-0.3-2-0.5-3.6-0.5
	c-0.5,0.4-0.1,0.2-1,0.5c0,0.3,0,0.7,0,1c-2.7,3.6,0.3,8.7,1,11.8c1,3.9-1,7.5-2,9.7c-0.3,0-0.7,0-1,0c0.4-3,2.8-6.2,1.5-10.2
	c-1.5-4.8-2.3-6.9-1-12.8c1.9-1.2,2.3-2,5.6-2c0.9,0.9,1.4,0.8,2,2c0.6,0.9,0.6,2.9,0.5,4.6c-0.5,0.2-1,0.3-1.5,0.5
	C20.4,94.9,19.8,94.9,18.5,94.9z M41,98c1.3,0.7,0.3-0.2,1,1c-2.4,3.1-4.5,9.7-6.6,13.3c-0.3,0-0.7,0-1,0c0-0.3,0-0.7,0-1
	C37.6,108,38.7,102.1,41,98z M3.1,98.5c0.9,0,1.7,0,2.6,0c1,1.2,2,2.4,3.1,3.6c-0.1,9.5-9.1,14.6-6.6,23.5c0.5,1.8,2,3.3,2.6,5.1
	c-0.5,0-1,0-1.5,0c-0.2-0.2-0.3-0.3-0.5-0.5c-0.7-4-3.2-7.4-1.5-12.8c1.7-5.6,6-7.3,6.1-15.3c-1.4-0.9-1.4-1.6-3.6-2
	c-0.5,0.4-1.4,0.7-2,1c-0.6,1.4-0.9,1.9-1,4.1c0.2,0.2,0.3,0.3,0.5,0.5c1.6,0,3.2-0.1,4.1,0.5c-1.4,0.7-2.2,1-4.6,1
	c-0.8-1.4-1.3-1.8-1.5-4.1c1.1-1.6,0.5-2.7,2.6-3.6C2,99.2,2.7,98.9,3.1,98.5z M45.6,99.5c0.8,0.7,0.6,0.3,1,1.5
	c-3.3,4.7-2.8,16.1-9.2,17.4c0-0.3,0-0.7,0-1C42.2,115,43.6,104.9,45.6,99.5z M44,100c-0.4,2.4-1.6,4.2-2.6,6.1c-0.3,0-0.7,0-1,0
	c0-0.5,0-1,0-1.5c1-1.1,1.4-3.1,2-4.6C43,100,43.5,100,44,100z M35.9,102.1c1.3,0.7,0.6-0.1,1,1.5c-4.2,3.5-4.8,10.9-10.2,13.3
	c0-0.5,0-1,0-1.5C30.7,112.2,33.2,106.7,35.9,102.1z M47.1,103.6c0.5,0,1,0,1.5,0c-0.3,1.5-0.7,3.1-1,4.6c-0.3,0-0.7,0-1,0
	c0-0.7,0-1.4,0-2C47,105.5,47,104.9,47.1,103.6z M21.5,116.4c0.2-1.2,0.2-1.3,0.5-2c1.3,0.3,1,0.2,2.6,0c0.3-0.8,0.4-1.2,0.5-2.6
	c-0.3-0.4-0.7-1.1-1-1.5c-1-1-2-1-4.1-1c-0.7,2.1-1.5,2.4-1.5,5.6c3.5,4.6,4.1,11,1.5,16.4c-0.3,0-0.7,0-1,0
	c0.4-2.6,2.5-5.2,1.5-8.7c-1.5-5.3-3.3-5.2-3.1-12.8c1.9-1.4,1.5-2.5,5.1-2.6c0.5,0.4,1.4,0.7,2,1c1.1,1.8,2.5,4,1.5,5.6
	C25.4,116.1,24.5,116.4,21.5,116.4z M39.9,107.7c1.9,3.1-5.6,12.5-8.2,13.3c0-0.3,0-0.7,0-1C35.6,117.1,37.8,112.4,39.9,107.7z
	 M50.2,108.2c2.4,2.6-3,10.8-4.1,13.8c-0.3,0-0.7,0-1,0c0-0.5,0-1,0-1.5C48.2,117.9,48.5,112.4,50.2,108.2z M45.6,110.3
	c0.3,0,0.7,0,1,0c0,0.7,0,1.4,0,2c-1.5,1.5-1.9,4.2-3.6,5.6c0,0.2,0,0.3,0,0.5c-0.2-0.2-0.3-0.3-0.5-0.5c-0.4-0.8-0.1-0.1,0-1.5
	C43.9,115,45.2,112.6,45.6,110.3z M51.7,112.8c1.7,0.4,0.8-0.3,1.5,1c-0.9,1.2-0.7,2.3-2,3.1c0-0.9,0-1.7,0-2.6
	C51.6,113.8,51.5,113.9,51.7,112.8z M32.8,113.3c1.5,1.9-5.2,9.7-8.7,10.2c0-0.3,0-0.7,0-1C27.3,120.4,30.7,116.6,32.8,113.3z
	 M53.7,116.9c0.9,1,0.9,0.4,0.5,1.5c-0.4,1.6-0.9,2.7-2,3.6c-0.2,0.2-0.3,0.3-0.5,0.5c0-0.5,0-1,0-1.5
	C52.8,120.1,53.3,118.5,53.7,116.9z M50.2,118.4c1.3,0.7,0.3-0.2,1,1c-0.7,0.7-1.1,1.6-1.5,2.6c-0.2-0.2-0.3-0.3-0.5-0.5
	c-0.4-0.8-0.1-0.1,0-1.5C49.6,119.5,49.8,119.1,50.2,118.4z M54.8,120.5c1.7,0.4,0.8-0.3,1.5,1c-0.5,0.5-0.7,0.9-1,1.5
	c-0.3,0-0.7,0-1,0c0-0.2,0-0.3,0-0.5C55.1,121.4,55,121.7,54.8,120.5z M28.7,123c1.3,0.7,0.3-0.2,1,1c-1.6,1.2-2.4,2.8-4.6,3.6
	C25.9,125.5,27.5,124.8,28.7,123z M33.3,123.6c2,2.5-5.9,8.8-8.7,10.2c0-0.5,0-1,0-1.5C27.8,130.3,31.6,126.9,33.3,123.6z
	 M50.7,151.2c-1,0-2,0-3.1,0c-1.5-1-1.4-5.3-2-7.2c-2-5.4-3.7-11-5.6-16.9c6-2,20.4-0.8,26.6,0c2.5,6,5.5,16.1,6.1,23
	C70.4,150.2,53,149.7,50.7,151.2z M34.3,127.6c1.3,0.7,0.6-0.1,1,1.5c-1.7,1.2-1.9,2.8-4.1,3.6c0-0.3,0-0.7,0-1
	C32.7,130.7,33.5,129.3,34.3,127.6z M38.9,150.6c0.1,0,0.4-14.6,0.5-18.4c1.9,2.6,5.7,14.6,6.1,18.4
	C43.3,150.6,41.1,150.6,38.9,150.6z M37.4,133.3c1.1,1.7,0.3,14.8,0,17.4c-1.4,0.2-2.7,0.3-4.1,0.5
	C34.2,144.9,37.3,139.9,37.4,133.3z M28.2,134.3c1.3,0.7,0.3-0.2,1,1c-0.2,0-0.3,0-0.5,0c-1.1,1.8-2.6,3.2-5.1,3.6c0-0.3,0-0.7,0-1
	C25.2,137,27.1,135.8,28.2,134.3z M14.4,134.8c-0.3,1.5-0.7,3.1-1.5,4.1c0.2,0.5,0.3,1,0.5,1.5c2-0.3,3.1-0.8,4.1-2
	c0.2,0,0.3,0,0.5,0c-0.2,1.1-0.1,1-0.5,1.5c-1.2,3.5-5,3.4-7.7,4.1c-1.4-1.3-4.1-2.6-5.6-3.6c0-0.5,0-1,0-1.5
	c0.9,0.4,1.9,0.9,2.6,1.5c1.1-0.2,1-0.1,1.5-0.5c0.5-1,0.3-1.1-0.5-2c0-0.5,0-1,0-1.5c1.3,1.4,1.4,1.5,3.6,2.6
	c0.8-1.4,1.6-2.3,2-4.1C13.7,134.8,14,134.8,14.4,134.8z M30.2,142c1.3,0.7,0.3-0.2,1,1c-0.2,0.2-0.3,0.3-0.5,0.5
	c-0.2,0-0.3,0-0.5,0C30.2,143,30.2,142.5,30.2,142z M6.2,148.1c0.5,0.2,1,0.3,1.5,0.5c-0.2,2.1-2,3.1-4.1,1.5
	c-0.2-0.2-0.3-0.3-0.5-0.5c0.2,0,0.3,0,0.5,0c0.4-1.6,0.3-1.1,1-2C5.7,147.8,5.7,147.7,6.2,148.1z M13.9,148.6
	c-0.4,0.9-0.7,1.4-1,2.6c-1.6-0.2-0.8-0.2-2,0c-0.2-0.2-0.3-0.3-0.5-0.5c0.4-1.2,0.5-1.1,1-2C12.2,148.6,13,148.6,13.9,148.6z
	 M19,149.6c-0.3,0.5-0.7,1-1,1.5c-0.5,0-1,0-1.5,0c0.3-0.8,0.4-1.2,0.5-2.6C18.1,149,18.1,149.1,19,149.6z M23.1,148.6
	c0,0.7,0,1.4,0,2c-0.3,0-0.7,0-1,0c0.3-0.8,0.4-0.9,0.5-2C22.7,148.6,22.9,148.6,23.1,148.6z M49.7,122"/>
</svg>
