<?xml version="1.0" encoding="utf-8"?>
<!-- Generator: Adobe Illustrator 19.0.0, SVG Export Plug-In . SVG Version: 6.00 Build 0)  -->
<svg version="1.1" id="Layer_1" xmlns="http://www.w3.org/2000/svg" xmlns:xlink="http://www.w3.org/1999/xlink" x="0px" y="0px"
	 viewBox="0 0 561.9 683.4" style="enable-background:new 0 0 561.9 683.4;" xml:space="preserve">
<style type="text/css">
	.st0{fill-rule:evenodd;clip-rule:evenodd;fill:none;}
</style>
<path class="st0" d="M378.4,13c0.7,2,1.3,4,2,6c0.7,0.3,1.3,0.7,2,1c0,0.7,0,1.3,0,2l2,2c0.7,0,1.3,0,2,0c1,1.3,2,2.7,3,4
	c0.3,0,0.7,0,1,0c0,0.7,0,1.3,0,2c0.7,0.3,1.3,0.7,2,1c0,0.7,0,1.3,0,2c1,0.7,2,1.3,3,2c1.7,2,3.3,4,5,6c2.3,2,4.7,4,7,6
	c0.7,5,1.3,10,2,15c2.3,1.7,4.7,3.3,7,5c3.3,6,6.7,12,10,18c4.3,4,8.7,8,13,12c0,0.7,0,1.3,0,2c1.3,1,2.7,2,4,3c0,2.3,0,4.7,0,7
	c0.3,0,0.7,0,1,0c0,1.3,0,2.7,0,4c0.3,0,0.7,0,1,0c0,1.3,0,2.7,0,4c0.3,0,0.7,0,1,0c0,1.3,0,2.7,0,4c0.3,0,0.7,0,1,0
	c0.3,2.7,0.7,5.3,1,8c0.7,0.3,1.3,0.7,2,1c2.5,2.7,6.9,6.2,8,10c4.3,1.2,3.4,3.1,6,5c0.7,0,1.3,0,2,0c2,2.3,4,4.7,6,7
	c0.7,0.3,1.3,0.7,2,1c0,0.7,0,1.3,0,2l2,2c0,0.7,0,1.3,0,2c0.3,0,0.7,0,1,0c0,0.7,0,1.3,0,2c0.3,0,0.7,0,1,0c0,0.7,0,1.3,0,2
	c0.3,0,0.7,0,1,0c0,0.7,0,1.3,0,2c4.5,7.1,12.5,16,23,17c0,1.3,0,2.7,0,4c4.5,2.6,5.8,8.2,12,9c0-0.3,0-0.7,0-1c1.3,0,2.7,0,4,0
	c1.6-0.6,10.7-5.3,12-5c0,0.3,0,0.7,0,1c0.7,0,1.3,0,2,0c0,0.3,0,0.7,0,1c3,1,6,2,9,3c0,0.3,0,0.7,0,1c2.9,0.8,6.4-1.6,8-2
	c3-0.8,4.9,0.6,7,1c-0.7,4.3-1.3,8.7-2,13c0.3,0,0.7,0,1,0c0.3,1.3,0.7,2.7,1,4c0.7,0.3,1.3,0.7,2,1c0,0.7,0,1.3,0,2
	c1,0.7,2,1.3,3,2c1.2,2.6-0.4,15.1-1,17c-0.3,0-0.7,0-1,0c0,2,0,4,0,6c-0.7,0.3-1.3,0.7-2,1c-0.3,1.3-0.7,2.7-1,4c-0.3,0-0.7,0-1,0
	c-1.1,1.5-2.7,4-2,7c0.3,0,0.7,0,1,0c0,2.3,0,4.7,0,7c0.3,0.7,2.2,0.4,2,2c-0.3,0-0.7,0-1,0c-0.3,3-0.7,6-1,9
	c-1.1,3.3-4.6,11.6-3,17c0.3,0,0.7,0,1,0c0.3,2.3,0.7,4.7,1,7c0.7,0.3,1.3,0.7,2,1c0,1.7,0,3.3,0,5c0.3,0,0.7,0,1,0
	c0,6.7,0,13.3,0,20c0,11.3,0,22.7,0,34c0.3,0,0.7,0,1,0c0,2,0,4,0,6c-1,0.7-2,1.3-3,2c0,0.7,0,1.3,0,2c-0.7,0.3-1.3,0.7-2,1
	c-1.7,2-3.3,4-5,6c-0.3,0-0.7,0-1,0c0,2,0,4,0,6c1.2,1.4,1.9,17.7,1,21c-0.3,0-0.7,0-1,0c-1,3.4,0.1,26.2,1,28c1,0.7,2,1.3,3,2
	c0,0.7,0,1.3,0,2c0.7,0.3,1.3,0.7,2,1c0,0.7,0,1.3,0,2c0.7,0.3,1.3,0.7,2,1c0,0.7,0,1.3,0,2c0.3,0,0.7,0,1,0c0,0.7,0,1.3,0,2
	c0.3,0,0.7,0,1,0c1.7,2.8-0.9,1.8,3,3c-0.3,7-0.7,14-1,21c1,3.6,2.4,17.9,1,23c-1,3.6-2.4,24.1-1,29c0.3,0,0.7,0,1,0
	c0,4.7,0,9.3,0,14c-4.4,2.7-5.2,6.8-8,11c-0.7,0.3-1.3,0.7-2,1c-0.3,1.3-0.7,2.7-1,4c-0.7,0.3-1.3,0.7-2,1c-0.3,1.3-0.7,2.7-1,4
	c-0.3,0-0.7,0-1,0c0,0.7,0,1.3,0,2c-0.3,0-0.7,0-1,0c0,0.7,0,1.3,0,2c-0.3,0-0.7,0-1,0c0,1,0,2,0,3c-0.3,0-0.7,0-1,0
	c0,0.7,0,1.3,0,2c-0.3,0-0.7,0-1,0c-0.7,3.3-1.3,6.7-2,10c1.5,1,4.1,4.5,5,6c0,0.7,0,1.3,0,2c0.7,0.3,1.3,0.7,2,1c0,0.7,0,1.3,0,2
	c0.3,0,0.7,0,1,0c0.3,1.7,0.7,3.3,1,5c2.4,3.8,6.7,7,8,12c-2.5,1.6-2.3,3.6-4,6c-1,0.7-2,1.3-3,2c0,0.7,0,1.3,0,2
	c-0.7,0.3-1.3,0.7-2,1c0.3,1,0.7,2,1,3c-0.3,0-0.7,0-1,0c-3.5,3.8-7.4,1.4-13,3c0,0.3,0,0.7,0,1c-8.3,0-16.7,0-25,0c0,0.3,0,0.7,0,1
	c-3.7,0-7.3,0-11,0c0,0.3,0,0.7,0,1c-1.3,0-2.7,0-4,0c-0.7,1-1.3,2-2,3c-0.7,0-1.3,0-2,0c-0.3,0.7-0.7,1.3-1,2c-0.7,0-1.3,0-2,0
	c-0.3,0.7-0.7,1.3-1,2c-2,0.7-4,1.3-6,2c0,0.3,0,0.7,0,1c-2,0.7-4,1.3-6,2c0,0.3,0,0.7,0,1c-1.3,0-2.7,0-4,0c0,0.3,0,0.7,0,1
	c-4,0-8,0-12,0c-6.7,0-13.3,0-20,0c0,0.3,0,0.7,0,1c-1,0-2,0-3,0c-3.7-0.3-7.3-0.7-11-1c0,0.3,0,0.7,0,1c-3.3,0.3-6.7,0.7-10,1
	c-0.3,0.7-0.7,1.3-1,2c-1,0.3-2,0.7-3,1c0,0.3,0,0.7,0,1c-0.7,0-1.3,0-2,0c-6.3,3.5-14,6.1-23,7c-1.7-2-3.3-4-5-6c-0.3,0-0.7,0-1,0
	c0-0.7,0-1.3,0-2c-0.7-0.3-1.3-0.7-2-1c-0.3-1.3-0.7-2.7-1-4c-0.7-0.3-1.3-0.7-2-1c0-0.7,0-1.3,0-2c-1.7-2.3-3.3-4.7-5-7
	c-3,0-6,0-9,0c-3.9,3.2-20,0.2-26,2c0,0.3,0,0.7,0,1c-2.7,0.3-5.3,0.7-8,1c0,0.3,0,0.7,0,1c-1,0-2,0-3,0c0,0.3,0,0.7,0,1
	c-1.3,0-2.7,0-4,0c0,0.3,0,0.7,0,1c-1.3,0-2.7,0-4,0c0,0.3,0,0.7,0,1c-1.7,0-3.3,0-5,0c0,0.3,0,0.7,0,1c-1.7,0-3.3,0-5,0
	c0,0.3,0,0.7,0,1c-1.7,0-3.3,0-5,0c0,0.3,0,0.7,0,1c-1.3,0-2.7,0-4,0c0,0.3,0,0.7,0,1c-4.3,0.7-8.7,1.3-13,2c0,0.3,0,0.7,0,1
	c-1,0-2,0-3,0c0,0.3,0,0.7,0,1c-0.7,0-1.3,0-2,0c0,0.3,0,0.7,0,1c-2,0.3-4,0.7-6,1c0,0.3,0,0.7,0,1c-0.7,0-1.3,0-2,0
	c0,0.3,0,0.7,0,1c-1.3,0-2.7,0-4,0c-4,1.3-12.2,2.6-16,1c0,0.3,0,0.7,0,1c-0.3,0-0.7,0-1,0c0.2,1,1.9,2,1,4c-4.7,3.7-9.3,7.3-14,11
	c-0.7,0-1.3,0-2,0c-1,1.3-2,2.7-3,4c-0.7,0-1.3,0-2,0c0,0.3,0,0.7,0,1c-1,0.7-2,1.3-3,2c-0.3,0.7-0.7,1.3-1,2c-4.7,0-9.3,0-14,0
	c-2,1.9-5.7,0.1-9,1c-7,1.9-14.4,0.4-20-2c-5.5-10.2-3-17.4-3-31c0-6.9-0.6-12-2-17c0.3-3.7,0.7-7.3,1-11c0.3,0,0.7,0,1,0
	c0-0.2-0.9-2.4-1-4c7.1-3.9,7.3-5,19-5c0.3-2,0.7-4,1-6c2.8-0.7,2.2-0.3,3-3c-0.3,0-0.7,0-1,0c-0.8-3.2-2.6-3.6-4-6
	c-2,0.3-4,0.7-6,1c0-0.3,0-0.7,0-1c-1-0.3-2-0.7-3-1c0,0.3,0,0.7,0,1c-1,0.7-2,1.3-3,2c0-4.7,0-9.3,0-14c1.2-1.3,3.2-13.4,2-17
	c-0.3,0-0.7,0-1,0c0-1,0-2,0-3c-0.7-0.3-1.3-0.7-2-1c-0.3-0.8,3.6-9.3,2-13c-0.7-0.3-1.3-0.7-2-1c0-1.3,0-2.7,0-4c-0.3,0-0.7,0-1,0
	c0-0.3,0-0.7,0-1c-1.5-0.6-1.6-0.8-4-1c-2.7,1.7-5.3,3.3-8,5c0.6,2.8,2,5.7,1,7c-1.3,1.7-2.7,3.3-4,5c-0.3,0-0.7,0-1,0
	c0-0.3,0-0.7,0-1c-1.9-1.6-3.7-4.8-5-7c0-0.7,0-1.3,0-2c-1-0.7-2-1.3-3-2c0-0.3,0-0.7,0-1c-0.7,0-1.3,0-2,0c-0.9-0.7-0.8-2.1-2-3
	c-1.8,2-2,0.8-4,2c0,0.3,0,0.7,0,1c-0.7,0-1.3,0-2,0c-0.7,1-1.3,2-2,3c-0.3,0-0.7,0-1,0c0,0.7,0,1.3,0,2c-0.7,0.3-1.3,0.7-2,1
	c-0.3,2-0.7,4-1,6c-0.3,0-0.7,0-1,0c0,0.7,0,1.3,0,2c-0.3,0-0.7,0-1,0c0,1,0,2,0,3c-0.3,0-0.7,0-1,0c0,1,0,2,0,3c-0.3,0-0.7,0-1,0
	c0,1,0,2,0,3c-0.3,0-0.7,0-1,0c0,1.7,0,3.3,0,5c-0.3,0-0.7,0-1,0c0,3.7,0,7.3,0,11c-0.3,0-0.7,0-1,0c0,2.3,0,4.7,0,7
	c0.3,0,0.7,0,1,0c0,1,0,2,0,3c0.3,0,0.7,0,1,0c0,0.7,0,1.3,0,2c0.3,0,0.7,0,1,0c-0.3,1-0.7,2-1,3c0.3,0,0.7,0,1,0c0,0.3,0,0.7,0,1
	c4.7,2.3,9.3,4.7,14,7c0,0.7,0,1.3,0,2c0.3,0,0.7,0,1,0c0,1.7,0,3.3,0,5c0.3,0,0.7,0,1,0c0,1,0,2,0,3c0.3,0,0.7,0,1,0c0,1,0,2,0,3
	c0.3,0,0.7,0,1,0c0,1.3,0,2.7,0,4c2.7,8.3,2.3,15.8,0,24c0,4.3,0,8.7,0,13c0,9-0.6,18.4-1,26c-3.5-0.3-9.4-2.5-14-1c0,0.3,0,0.7,0,1
	c-1,0-2,0-3,0c0,0.3,0,0.7,0,1c-1.7,0-3.3,0-5,0c0,0.3,0,0.7,0,1c-2.3,0-4.7,0-7,0c0,0.3,0,0.7,0,1c-1.7,0-3.3,0-5,0
	c0,0.3,0,0.7,0,1c-2,0-4,0-6,0c0,0.3,0,0.7,0,1c-5,0-10,0-15,0c0,0.3,0,0.7,0,1c-3.3,0-6.7,0-10,0c0,0.3,0,0.7,0,1
	c-3.7,0-7.3,0-11,0c-3.1,0.9-14.4,3.3-19,2c0-0.3,0-0.7,0-1c-3.3,0.3-6.7,0.7-10,1c0-0.3,0-0.7,0-1c-1.7,0-3.3,0-5,0
	c0-0.3,0-0.7,0-1c-1.3,0-2.7,0-4,0c0-0.3,0-0.7,0-1c-2.7,0-5.3,0-8,0c0-0.3,0-0.7,0-1c-3,0-6,0-9,0c0-0.3,0-0.7,0-1
	c-4.7,0-9.3,0-14,0c0-0.3,0-0.7,0-1c-1,0.3-2,0.7-3,1c0-0.3,0-0.7,0-1c-2.6-1.8-1.7-2.1-3-5c-0.3,0-0.7,0-1,0c0-1.7,0-3.3,0-5
	c-0.3,0-0.7,0-1,0c-0.3-2-0.7-4-1-6c0.3,0,0.7,0,1,0c0-1.3,0-2.7,0-4c0.3,0,0.7,0,1,0c0-3.3,0-6.7,0-10c0.7-2.4,3.2-7.9,2-12
	c-3-10.5-5.3-35.3-2-48c-0.3-4.3-0.7-8.7-1-13c-0.3,0-0.7,0-1,0c0.3-2,0.7-4,1-6c0.3,0,0.7,0,1,0c0-3,0-6,0-9c0.3,0,0.7,0,1,0
	c0.3-1.7,0.7-3.3,1-5c0.7-0.3,1.3-0.7,2-1c0-0.7,0-1.3,0-2c1-0.7,2-1.3,3-2c1-2.3-2.3-16.5-3-18c-0.3,0-0.7,0-1,0c0-0.7,0-1.3,0-2
	c-0.3,0-0.7,0-1,0c-2.9-6.8-2-18.6-2-28c2.7-2,5.3-4,8-6c0-0.7,0-1.3,0-2c1-0.7,2-1.3,3-2c0-7,0-14,0-21c1.2-1.3,1.9-8.1,1-11
	c-1-3.3-2.2-6.1-2-11c0.3-2.3,0.7-4.7,1-7c-0.7-0.3-1.3-0.7-2-1c0-1,0-2,0-3c-0.3,0-0.7,0-1,0c0-1,0-2,0-3c-0.3,0-0.7,0-1,0
	c0-5.7,0-11.3,0-17c-0.3,0-0.7,0-1,0c-0.3-3-0.7-6-1-9c-0.3,0-0.7,0-1,0c0-1.3,0-2.7,0-4c-1.7-1.3-3.3-2.7-5-4c0-2,0-4,0-6
	c-3.1-10.6-0.5-28.4,2-37c0-7.3,0-14.7,0-22c-0.3,0-0.7,0-1,0c0-1.3,0-2.7,0-4c-0.3,0-0.7,0-1,0c0-0.3,0-0.7,0-1c0.3,0,0.7,0,1,0
	c0.7-3.3,1.3-6.7,2-10c0.3,0,0.7,0,1,0c-0.3-3.3-0.7-6.7-1-10c0.3-5.7,0.7-11.3,1-17c0.3,0,0.7,0,1,0c-1-3-2-6-3-9c-0.3,0-0.7,0-1,0
	c-0.3-4.3-0.7-8.7-1-13c2.8-1.6,4.6-5,6-8c2.9,1.5,4.4,2.8,9,3c0.7,2.3,1.3,4.7,2,7c5,1.9,14.3,1.1,21,1c0,0.3,0,0.7,0,1
	c2.7,0,5.3,0,8,0c4-6.7,12-11.2,19-15c2-0.7,4-1.3,6-2c0.3-0.7,0.7-1.3,1-2c0.7,0,1.3,0,2,0c0-0.3,0-0.7,0-1c1.3-0.3,2.7-0.7,4-1
	c0-0.3,0-0.7,0-1c1,0.3,2,0.7,3,1c1.7-2,3.3-4,5-6c2.3-0.3,4.7-0.7,7-1c0-0.3,0-0.7,0-1c1.7-1.3,3.3-2.7,5-4c0-0.7,0-1.3,0-2
	c3-2.7,6-5.3,9-8c0-0.7,0-1.3,0-2c0.3,0,0.7,0,1,0c0.3-1,0.7-2,1-3c0.7-0.3,1.3-0.7,2-1c0-0.7,0-1.3,0-2c1.3-1,2.7-2,4-3
	c0-0.7,0-1.3,0-2c1-0.7,2-1.3,3-2c0.3-0.7,0.7-1.3,1-2c0.7,0,1.3,0,2,0c1.7-2,3.3-4,5-6c0.7,0,1.3,0,2,0c1.3-1.7,2.7-3.3,4-5
	c3,0,6,0,9,0c0-0.3,0-0.7,0-1c1,0,2,0,3,0c0-0.3,0-0.7,0-1c2-0.7,4-1.3,6-2c0-0.3,0-0.7,0-1c0.7,0,1.3,0,2,0c1-1.3,2-2.7,3-4
	c0.7,0,1.3,0,2,0c0.3-0.7,0.7-1.3,1-2c0.7,0,1.3,0,2,0l2-2c0.7,0,1.3,0,2,0c0-0.3,0-0.7,0-1c0.7,0,1.3,0,2,0c0-0.3,0-0.7,0-1
	c1.3-0.3,2.7-0.7,4-1c0.3-0.7,0.7-1.3,1-2c1.3-0.3,2.7-0.7,4-1c0.3-0.7,0.7-1.3,1-2c0.7,0,1.3,0,2,0c1-1.3,2-2.7,3-4
	c0.7,0,1.3,0,2,0c0.3-0.7,0.7-1.3,1-2c2-1.7,4-3.3,6-5c0-0.7,0-1.3,0-2c2-1.7,4-3.3,6-5c0-0.7,0-1.3,0-2c1.3-1,2.7-2,4-3
	c0-0.7,0-1.3,0-2c4.7-4.3,9.3-8.7,14-13c2.7-3,5.3-6,8-9c0.7,0,1.3,0,2,0c4-4.3,8-8.7,12-13c0.7,0,1.3,0,2,0c0.7-1,1.3-2,2-3
	c0.7,0,1.3,0,2,0c0.7-1,1.3-2,2-3c0.7,0,1.3,0,2,0c0.7-1,1.3-2,2-3c2.7-2.3,5.3-4.7,8-7c0-0.7,0-1.3,0-2c1.3-1,2.7-2,4-3
	c0-0.7,0-1.3,0-2c0.3,0,0.7,0,1,0c0.3-1,0.7-2,1-3c0.7-0.3,1.3-0.7,2-1c0-0.7,0-1.3,0-2c2-1.7,4-3.3,6-5c0.7,0,1.3,0,2,0
	c0-0.3,0-0.7,0-1c0.7,0,1.3,0,2,0c0-0.3,0-0.7,0-1c0.7,0,1.3,0,2,0c0-0.3,0-0.7,0-1c2-0.3,4-0.7,6-1c0-0.3,0-0.7,0-1
	c2-0.7,4-1.3,6-2c0-0.3,0-0.7,0-1c0.7,0,1.3,0,2,0c0-0.3,0-0.7,0-1c1-0.3,2-0.7,3-1c0.3-0.7,0.7-1.3,1-2c1.3-0.3,2.7-0.7,4-1
	c0.3-0.7,0.7-1.3,1-2c0.7,0,1.3,0,2,0c0.3-0.7,0.7-1.3,1-2c1.7-1.3,3.3-2.7,5-4c1-3,2-6,3-9c3.7-3.3,7.3-6.7,11-10c0-0.7,0-1.3,0-2
	c1-0.7,2-1.3,3-2c0-0.7,0-1.3,0-2c0.7-0.3,1.3-0.7,2-1c0-4,0-8,0-12c0.3,0,0.7,0,1,0c0-2.3,0-4.7,0-7c2.3-2,4.7-4,7-6
	c0-0.7,0-1.3,0-2c2.7-2.3,5.3-4.7,8-7c1.3-1.7,2.7-3.3,4-5c1.3,0,2.7,0,4,0c1.7-1.6,8.9-2.7,12-3c-0.3,1-0.7,2-1,3c0.3,0,0.7,0,1,0
	c2.3,2.7,4.7,5.3,7,8c0.7,0,1.3,0,2,0c0,0.3,0,0.7,0,1C374.4,12.3,376.4,12.7,378.4,13z"/>
</svg>
