<?xml version="1.0" encoding="utf-8"?>
<!-- Generator: Adobe Illustrator 19.0.0, SVG Export Plug-In . SVG Version: 6.00 Build 0)  -->
<svg version="1.1" id="Layer_1" xmlns="http://www.w3.org/2000/svg" xmlns:xlink="http://www.w3.org/1999/xlink" x="0px" y="0px"
	 viewBox="0 0 559 230" style="enable-background:new 0 0 559 230;" xml:space="preserve">
<style type="text/css">
	.st0{fill-rule:evenodd;clip-rule:evenodd;}
</style>
<path class="st0" d="M0,227l10-1l-1-16h6l1,15l18-1l1-33l-7-2l18-7l1-11l10-2l1-47l10-4v-11l-22-3l44-24l5-26l8,25l34,22l-13,6
	l-1,13l12,1l1,17l28,1l2-14l13-3l-2-15h-19l34-18l-20-3l29-10l5-19l4,14l25-11l-1-20l8,18l13-6l2-14l5,10l7-6l3-42l8,42l12,10l-1-10
	l5,14l13,3l2-20l7,22l19,11V58l8,15l32,11l-18,6l1,8l22,5l-16,9l-2,10l15,1l-1,14h37v-13l13-1v-15l-20-2l44-25l3-21l5,19l41,26
	l-14,5l-2,9l12,2v51l12,2l1,10l14,6l-8,4l-1,29l18,1v-17h6l2,7l8,1l1,13l9,2"/>
</svg>
