<?xml version="1.0" encoding="utf-8"?>
<!-- Generator: Adobe Illustrator 19.0.0, SVG Export Plug-In . SVG Version: 6.00 Build 0)  -->
<svg version="1.1" id="Layer_1" xmlns="http://www.w3.org/2000/svg" xmlns:xlink="http://www.w3.org/1999/xlink" x="0px" y="0px"
	 viewBox="0 0 34 123.4" style="enable-background:new 0 0 34 123.4;" xml:space="preserve">
<style type="text/css">
	.st0{fill-rule:evenodd;clip-rule:evenodd;}
</style>
<path class="st0" d="M20,22c0,2.7,0,5.3,0,8c4.3,1,6.5,3.2,10,5c0,0.7,0,1.3,0,2c-0.7,0-1.3,0-2,0c-3.2,1.9-5.3-0.6-8-2
	c0,2.3,0,4.7,0,7c4.3,1.1,8.1,3.1,9,8c-0.7,0-1.3,0-2,0c-2.8,1.5-4.3-0.6-7-2c0,0.7,0,1.3,0,2c0.8,1.7,0.2,2.6,0,6
	c3.5,2.1,8.1,5.2,9,10c-4.4-0.3-6-1.7-8-1c-0.8,1.2-0.8,1.7-1,4c3.1,2,5.4,4.2,9,6c0,0.7,0,1.3,0,2c-2.1,1.1-1.8,1.4-5,2
	c-1.1-1.2-2.5-2.1-4-3c0,0.7,0,1.3,0,2c0.9,1.3,0.9,2.5,1,5c2.5,1.5,4.8,3,6,6c-0.7,0.3-1.3,0.7-2,1c-0.6,0.4-3.6,2-4,0
	c0,9.7,0,19.3,0,29c3.1,1.1,8.4,1.1,13,1c0,1,0,2,0,3c-12.1,0-22.9,0.8-34,0c0-0.3,0-0.7,0-1c0.3,0,0.7,0,1,0c3.2-2.4,9.3-2.1,15-2
	c0-10.7,0-21.3,0-32c-0.7,0-1.3,0-2,0c-1.6,2.3-1.5,2.4-5,3c-0.6-1.8-0.2-1-1-2c3.2-4.6,6.6-5.1,7-13c-0.3,0-0.7,0-1,0
	c-1.6,1.5-2,1.6-5,2c-0.3-1-0.7-2-1-3c3-2.5,5.8-5.6,7-10c-0.3,0-0.7,0-1,0c-1.6,1.5-2,1.6-5,2c-0.3-1-0.7-2-1-3
	c4.6-3.3,7.1-6.7,7-15c-0.3,0-0.7,0-1,0c-1.7,1.9-1.4,1.7-5,2c0-1.3,0-2.7,0-4c4.2-1.9,6-5.8,6-12c-0.3,0-0.7,0-1,0
	c-1.7,2.2-2.8,3.1-5,2c-1.9-4.2,5.2-7.5,6-14c-0.3,0-0.7,0-1,0c-1.8,2.5-1.8,2.6-6,3c-0.3-1-0.7-2-1-3c4.5-2.7,7.9-5.6,8-13
	c-0.3,0-0.7,0-1,0c-1.7,2.2-2.8,3.1-5,2c-0.8-1.1-0.6-0.9-1-3c3-3,6-6,9-9c0.3,0.3,0.7,0.7,1,1c4.1,2.3,9,5.6,10,11
	c-0.7,0.7-1.3,1.3-2,2c-1.7-1.3-3.3-2.7-5-4c0,2,0,4,0,6c3.3,1.5,7.4,3.6,9,7c-2.1,1.1-1.8,1.4-5,2C23.4,22.7,23.5,22.6,20,22z"/>
</svg>
