<?xml version="1.0" encoding="utf-8"?>
<!-- Generator: Adobe Illustrator 19.0.0, SVG Export Plug-In . SVG Version: 6.00 Build 0)  -->
<svg version="1.1" id="Layer_1" xmlns="http://www.w3.org/2000/svg" xmlns:xlink="http://www.w3.org/1999/xlink" x="0px" y="0px"
	 viewBox="0 0 564 741" style="enable-background:new 0 0 564 741;" xml:space="preserve">
<style type="text/css">
	.st0{fill-rule:evenodd;clip-rule:evenodd;fill:none;}
</style>
<path class="st0" d="M178,72c6.8,1.4,20.6,13.5,28,15c2.3,0.5,7.3-1.9,12-1c0,1,0,2,0,3c-1,1-2,2-3,3c7.8,2,14.1,8.4,21,12
	c1.2-3,3.1-3.9,5-6c2,0,4,0,6,0c0.4-2.1,0.2-1.9,1-3c1.1-0.8,0.9-0.6,3-1c0.7,4.2-0.6,5.1,3,6c0-0.7,0-1.3,0-2c-1.9-1.9-2.5-3.5-3-7
	c-4.3,0-8.7,0-13,0c-1.3-3-2.8-4.3-4-7c1.9-0.7,3.9-1,7-1c0,1.3,0,2.7,0,4c11-0.4,18,2.6,23,7c1.7-2.2,2.4-2.5,6-3
	c0.6,1.8,0.2,1,1,2c-0.9,2.7-1.7,2.9-3,5c2.6,0.8,2.4,1.2,5,2c1.9-2.3,4.9-3,7-5c-1.8-1.6-1.4-0.9-2-4c2.1-0.4,1.9-0.2,3-1
	c-1-1-2-2-3-3c1.5-0.5,1.7-0.7,4-1c3.2,2.3,2.7,0.6,8,0c0.7,5.1,2.5,4,4,8c-0.3,0-0.7,0-1,0c-1.7,0.9-3-0.2-5,1c7.3,1,9.9,5.6,15,7
	c4.3-0.7,8.7-1.3,13-2c0-1.3,0-2.7,0-4c2.5-1.5,2.3-2.3,6-3c-0.3,2-0.7,4-1,6c4.7,0,9.3,0,14,0c1.2-0.7,1-0.1,4,0
	c0.9-3.7,0.9-4.2,5-5c1.4,1.8,0.7,2.8,2,1c2.4-2.2,1.8-3.2,6-4c0.3,0.3,0.7,0.7,1,1c0.5,6.6,2.1,7,0,13c4.5,0,5.5,0,7,3
	c1.2,2,0.4,3,1,5c1.6,0.6,2.4,0.8,5,1c0-0.3,0-0.7,0-1c-3.5-1.4-3.8-3.4-4-8c0.7-0.7,1.3-1.3,2-2c-5.4,0.1-6.6,0-8-4
	c4.6-5.1,9.2-9,13-15c1.8,0.6,1,0.2,2,1c0.7,0,1.3,0,2,0c-0.2,3.8,0.3,3.4,1,8c-1.2,1.1-2.1,2.5-3,4c5.6-1.6,5,0.8,8,4
	c1.8-2.5,1.8-2.6,6-3c0.5,1.5,0.7,1.7,1,4c-1.3,1.7-1.6,3.1-2,6c3.1,2.8,1.3,5.2,7,6c1.2,0.5,5.4,1.6,9,2c0-0.3,0-0.7,0-1
	c-0.9-1.8-0.3-1.8,0-5c1,0,2,0,3,0c1,3.5,2.4,4.7,3,9c10.5,1.4,18.6,9.6,27,14c-2-4.6-4.5-9.1-7-13c-2.8,0.4-2.8,1.2-5,0
	c-2-1.6,0.7-1.2-2-2c-1.5-1-4.1-1-7-1c0-0.7,0-1.3,0-2c2.7,0,4.6,0,6-1c-1.6-1.3-1.1-0.6-2-3c1.3,0,2.7,0,4,0c0.3,0.3,0.7,0.7,1,1
	c-0.3,1-0.7,2-1,3c1.3,0,2.7,0,4,0c2,1,6-0.9,8,0c0.3,0,0.7,0,1,0c-2.4,8.9,3.4,23.1,13,26c0-0.3,0-0.7,0-1c-1-3-2-6-3-9
	c-1.8-2.9-4.6-3.1-6-7c0.7,0,1.3,0,2,0c0-0.3,0-0.7,0-1c0.3,0.3,0.7,0.7,1,1c8.5,2.6,11,10.3,19,13c1.2-2.1,1.6-2.9,4-4
	c-0.1,3.3-0.2,7.2,1,9c2.8-3.5,7.3-3.1,12-2c0-0.7,0-1.3,0-2c-0.9-1.3-0.9-2.5-1-5c0.7,0,1.3,0,2,0c3,5.1,5.9,8.1,10,12
	c4.3,0.2,9,1.1,11,0c-2.3-0.7-2.2-1-4-2c0-2,0-4,0-6c1.7,0.3,3.3,0.7,5,1c2.8,4.1,4.8,4.4,4,10c7.8,1.2,18.1,4.7,22,10
	c1.3,2.7,2.7,5.3,4,8c3.3,0,6.7,0,10,0c7.5,5.1,17.4,1.1,25,0c0,11.7,0,23.3,0,35c-1.9,0.7-3.9,1-7,1c-2.5,11.5-16.9,16.4-18,27
	c3.7,2.4,4.9,8.3,3,11c-1.2,0.8-1.7,0.8-4,1c-1-0.8-0.3-0.4-2-1c-0.6-2-1.7-11.4-2-12c-1.7,1.7-3.3,3.3-5,5c1.7,3.1,2.4,6,1,10
	c1,0,2,0,3,0c0,1.3,0,2.7,0,4c-3.3,0.3-6.7,0.7-10,1c-0.3-0.3-0.7-0.7-1-1c1.3-3.7,2.7-7.3,4-11c-0.3,0-0.7,0-1,0
	c-1.9,1.9-4.3,2.9-6,5c-0.2,0.6-0.6,5.6-1,8c-1.5,0.5-1.7,0.7-4,1c-1.1-2.6-0.9-4.4-2-6c0,0.3,0,0.7,0,1c-5.2,3.5-2.5,8.6-8,11
	c-1.4,1-3.3,1-6,1c0.1-2.9,1-1.4,0-3c-5.5,9.4-8.4,11.1-8,25c-1,1-2,2-3,3c-1-0.7-2-1.3-3-2c-0.3,2.3-0.7,4.7-1,7
	c3.8,2.4,5,4.6,5,11c-0.7,0.7-1.3,1.3-2,2c-1.5-0.5-1.7-0.7-4-1c2,8.3,4,16.7,6,25c-0.7,0-1.3,0-2,0c-0.7-2-1.3-4-2-6
	c-0.8,1-0.4,0.3-1,2c-2.5,2.2-1.9,2.8-7,3c0.1-4.2,0.3-7.9,2-11c1-0.3,2-0.7,3-1c0,0-3.9-20.4-2-27c2.4-8.5,8.5-14.5,10-24
	c-0.3,0-0.7,0-1,0c-6,9.1-16,15.3-22,25c-1.8,2.9-5.3,8.4-6,11c-0.9,3.4,2.1,6.6,0,10c-1.3,0.9-2.5,0.9-5,1c-0.1-9.8,5.1-17.6,9-24
	c-0.3,0-0.7,0-1,0c-1.6,2-3.6,2.8-6,4c0-1.3,0-2.7,0-4c2-2,4-4,6-6c2-0.3,4-0.7,6-1c4.4-2.7,5.9-9.2,11-12c0-0.3,0-0.7,0-1
	c-0.7,0-1.3,0-2,0c-2.6,1.8-4.2,1.3-7,1c0-0.7,0-1.3,0-2c6.2-2.3,1.7-5.1,9-6c1.8,1.7,4.6,2.7,6,2c7.3-4.1,24.4-14.4,30-20
	c-1.9-1.7-2.3-1.8-3-5c0.7,0,1.3,0,2,0c2.8-1.9,7.8,0,8,0c5.2-1.7,11.2-8.7,14-13c-0.3,0-0.7,0-1,0c-9.9,7.4-34.5,3.3-42,13
	c-1.7,2.5-1.7,5.1-4,7c-2.1,1.6-5,2.5-8,3c0-1.3,0-2.7,0-4c3-3,6-6,9-9c-1.1-1.5-1.1-0.8-2-3c15.5-1.5,31.3-5.8,45-9
	c0-0.3,0-0.7,0-1c-17.9,3.7-43.1,0.8-62,3c0-0.7,0-1.3,0-2c3.5-0.7,8.5-1.7,12-3c0-0.3,0-0.7,0-1c-3.2-1.6-4-2.2-5-6c2,0,4,0,6,0
	c1.7,1.6,3.3,2.3,6,3c0,1,0,2,0,3c4.5,0.1,10,1.1,12,0c-4.7-0.8-11.2-3-13-7c-0.8-1.2-0.8-1.7-1-4c8,0.5,7.8,4.4,16,5
	c0,3.1-0.3,5.1-1,7c9,0,18,0,27,0c3.7-1,7.3-2,11-3c2.2-3.4,4.7-5.5,6-10c0.3,0,0.7,0,1,0c-0.3-0.3-0.7-0.7-1-1
	c-4.1-3.2-21.2-14.2-26-15c1.9,13.2,8.1,6,14,12c0.3,0,0.7,0,1,0c-0.3,0.3-0.7,0.7-1,1c-2.8,1.9-6.7,0.5-10,0c0.5,2.2,1.1,2,0,4
	c-2.4-2.2-6.7-2.7-9-5c-1.8-1.8-2.2-5.2-4-7c0,0.3,0,0.7,0,1c-2.3,2.1-2.4,5.1-5,7c-2.2,1.5-6.1,2.5-9,3c0-1.3,0-2.7,0-4
	c2.8-2.1,13.7-11.2,15-14c-1-0.3-2-0.7-3-1c-1.1-0.8-0.9-0.6-3-1c-1.8,3.8-3,5.3-8,6c-1.2-2.3-1.6-2.3-2-6c2.1-0.4,1.9-0.2,3-1
	c-4.7-0.1-10.9-2.8-12-2c-3.9,2.8-3.7,8.8-8,11c-1.1,0.8-0.9,0.6-3,1c-0.3-0.3-0.7-0.7-1-1c2.1-5.8,2.2-15.8,5-21
	c-1.8-1.1-3.6-2.5-5-4c-1.8,0.6-1,0.2-2,1c-3.2,2.1-4.4,4.1-5,9c0.3,0,0.7,0,1,0c0.8-3.2-0.5-1.5,2-3c0,0.7,0,1.3,0,2
	c-12.3,17.6-11.1,34.6-36,41c-0.5,3.7-2.4,6-3,9c0.3,4.3,0.7,8.7,1,13c-1.5,6.3-2.5,13.8-5,20c-5.8,14.3-16,28.3-21,43
	c3.2,1.5,4.2,1.7,5,6c-4.9-0.4-5.3-1.8-9-3c-3,5.4-3.9,8.2-13,8c-7.8,5.7-21.8,0.2-27-3c0,0.3,0,0.7,0,1c2.8,2.1,5,5.2,6,9
	c0.8-1,0.4-0.3,1-2c0.9-0.9,1.3-1.8,2-3c1,0.3,2,0.7,3,1c0.2,2.3,0.2,2.8,1,4c1.7-1.9,1.4-1.7,5-2c0.3,0.3,0.7,0.7,1,1c0,1,0,2,0,3
	c-2.1,0.4-1.9,0.2-3,1c1.8,1.6,1.4,0.9,2,4c-3,1.6-3.4,1.9-4,6c0.9,0.9,1.3,1.8,2,3c2.3-1.8,2.1-2.4,6-3c2.5,2.9,3.1,3.9,3,10
	c-3,0-3.8,0.8-8,2c-2.4-5.7-11.3-24.1-17-28c0,0.3,0,0.7,0,1c4.1,3.4,2.2,7.6,1,12c3.4,0.9,3.1,0.4,4,4c-2,0-4,0-6,0
	c-1.1-2.2-2.8-6.7-5-8c0,3,0,6,0,9c3,3.9,3.6,9.6,7,13c0-0.3,0-0.7,0-1c3.6-2.7,2.9-5.3,9-6c0,2.3,0,4.7,0,7c2.1,0.4,1.9,0.2,3,1
	c1.3,1.4,1.4,1.8,2,4c-1,0-2,0-3,0c0,1.3,0,2.7,0,4c-1.3,0.3-2.7,0.7-4,1c1,0.8,0.3,0.4,2,1c1.4,3.1,4.6,5,8,6c0-3.9,0.3-5.1,2-7
	c2.3,2.8,6.2,2.8,9,5c1.3,1.4,1.4,1.8,2,4c-3.1,0.3-11-1-11-1c-0.3,0-0.7,0-1,0c1,0.8,0.3,0.4,2,1c5.4,5,16.7,7.2,25,9
	c0.3-2.3,0.5-2.5,1-4c1,0,2,0,3,0c-0.4,3.7-0.6,3-2,5c6.9,0.1,13.2,1.8,18,4c1.1-5.6,6.5-7.9,13-8c0.3,0.3,0.7,0.7,1,1c0,1,0,2,0,3
	c-1,0-2,0-3,0c-0.4,2.1-0.2,1.9-1,3c-0.9,2.3-1.9,2.9-3,5c-6.3-2.1-12.1,0.7-14,0c-3.4-1.3-5.1-3.4-9-5c0,0.3,0,0.7,0,1
	c1.8,1.9,1.8,0.8,1,3c-1.5,2.5,0.2,1.1-3,2c-0.9-3.1-1.6-3-2-7c-12.1-0.4-21.9-9-29-7c-0.9-4.7-4.9-6.8-9-8c-0.3,4.8-1.2,5.7-5,7
	c0,0.3,0,0.7,0,1c-0.3-0.3-0.7-0.7-1-1c-2.9-2.2-3.1-4.7-3-10c2.2-0.9,3.6-1.3,5-3c-1.7-1.1-4.5-5.1-5-4c-3,5.4-2,19.2-4,29
	c-0.7,0-1.3,0-2,0c0-0.3,0-0.7,0-1c2.6-3.9,1.4-17.5,0-22c-2.8-8.9-23.6-37.4-32-39c-5.9,5.1-17.3,3.4-24,8c1.5,2.2,0.8,4.8,0,7
	c-0.7,0-1.3,0-2,0c-0.7-0.7-1.3-1.3-2-2c0.6-1.6,0.8-2.4,1-5c-1.3,0-2.7,0-4,0c0,0.7,0,1.3,0,2c1.8,2.6,2.7,7.1,3,11c2,0,4,0,6,0
	c0,1.3,0,2.7,0,4c-2.9,1.5-3.2,1.1-4,5c1.8,2.4,2.8,7.3,4,10c-0.7,0-1.3,0-2,0c0-0.3,0-0.7,0-1c-2.2-2.7-4-7.3-5-11
	c-0.3,0-0.7,0-1,0c0,0.7,0,1.3,0,2c0.9,1.3,0.9,2.5,1,5c-2.3-0.3-2.5-0.5-4-1c0,0.7,0,1.3,0,2c8.3,1.5,5,8.2,7,13
	c1.3-3.7,2.7-3.6,6-5c0.2,4,0.1,7.7,2,9c0,0.3,0,0.7,0,1c4.2-1.1,2.3-1.1,7-1c2.4,3.9,5.6,7.3,8,11c-0.7,0-1.3,0-2,0
	c-2.3-2.6-5.4-5.7-9-7c-1.2,2.6-14.1,10.8-17,12c0-0.7,0-1.3,0-2c-1.3-2.3-0.1-4.4,1-7c-5.3-0.2-5.9-0.5-6-6c2.1-1.1,5.9-2.4,8-4
	c-2.4-1.2-7-2-10-3c1.4-3.1,2.7-6.5,4-10c-0.7,0-1.3,0-2,0c-1.7,2.6-2.2,3.3-6,4c0-1,0-2,0-3c-1.3,0-2.7,0-4,0c0.8-5.9,4.3-5.4,6-9
	c2.1-4.5-1.9-7.5,2-10c2-1.2,3.3-0.1,5-1c0.8-1,0.4-0.3,1-2c-1.3-1.7-1.7-4.2-2-7c-5.8-0.1-16.2,0.3-20,3c-5.5,1.8-7.7,7-10,12
	c-0.3,0-0.7,0-1,0c0-1,0-2,0-3c1.4-1.6,2.3-3.7,3-6c-0.3,0-0.7,0-1,0c-3.2,3.2-8.5,5.2-11,9c-4.2,6.2-5.9,12.1-10,18
	c-5,7.1-14.4,12.1-17,22c0,0.7,0,1.3,0,2c0,0.5-1.3,21.8,0,24c1,0.3,2,0.7,3,1c1.5,2.1,1,6.5,1,10c-2.7,1.4-3.6,0.5-5,3
	c2.6,3.4,2,5.8,6,8c0-0.7,0-1.3,0-2c1.4-1.2-0.9-2.2-2-4c1.8-0.6,1-0.2,2-1c2.3,0.7,4.7,1.3,7,2c0.3,3.2,1,3.2,0,5
	c-1,2.7-1.4,2.2-3,4c2,1.6,2.8,3.6,4,6c-2.3-0.3-4.7-0.7-7-1c0,0.7,0,1.3,0,2c1,1,2,2,3,3c1.1,0.5,4.5,0.3,7,2c2.7,1.8,3.6,6,6,8
	c2.1,1.8,5.3,1.9,7,4c2.4,3.1,3.3,7.2,6,10c2.9-3.1,6.2-1.2,11,0c1,1.8,1.3,1.7,2,4c-0.3,0-0.7,0-1,0c-3.4,2.8-6.5,1.6-10,0
	c0,0.3,0,0.7,0,1c9.8,10.6,10,21.2,24,30c-1-1.8-1.3-1.7-2-4c2.3,0,4.7,0,7,0c1.3,0.9,2.5,0.9,5,1c0.7,0.7,1.3,1.3,2,2
	c0,0.3,0,0.7,0,1c-4.1,0.7-6.1,1.9-6,4c6,6.2,15.2,9.2,21,13c-0.4-8.9,0.7-14.8,8-16c-0.9,2.7-2.5,4.6,0,8c2.5-2.4,4.9-3,10-3
	c0.4,5.2,0.8,5.4-1,9c0.7,0,1.3,0,2,0c8,5.5,23.7-1.8,28,10c2.1,2.6,1.1,9.1,4,11c4.2,3.3,8.1,1.6,13,3c0,3.2-1.7,1.3,1,3
	c3.7,2.2,10.4,0.6,15,2c5.1,1.6,11.5,4.8,17,7c1.6-4,5.1-9.3,10-10c1.8,1.1,1.9,0.2,4,1c0.4,2.3,0.9,1.1,0,3c-1.4,4-3.2,3.7-6,6
	c0.7,0,1.3,0,2,0c2.7,0.6,5.6-0.2,7-4c-0.7-0.7-1.3-1.3-2-2c4.1-2.6,6.9-6.3,12-8c0.3,0.3,0.7,0.7,1,1c-2.8,5-8,5.5-9,12
	c0.3,0,0.7,0,1,0c1-0.8,0.3-0.4,2-1c0-1,0-2,0-3c2.7,0,5.3,0,8,0c0,0.7,0,1.3,0,2c0.3,1,0.8,0.4,0,1c-1.4,1.3-3.2,2.1-5,3
	c2.4,2.5,4.7,3.2,6,7c-1.3,0-2.7,0-4,0c-2.5-3-6.6-3.7-9-7c-7,3.6-16.6,2.9-25,1c0,0.3,0,0.7,0,1c0.7,0,1.3,0,2,0
	c6.3,5.4,31.9,9.6,35,15c-0.3,0-0.7,0-1,0c-3.8-2.4-9.2-1.4-14-3c-9.2-3-18.3-7.3-27-11c0,1,0,2,0,3c2.3-0.4,1.1-0.9,3,0
	c1,2.7,2,5.3,3,8c2.2,3.2,5.9,4.2,8,8c-1,0-2,0-3,0c0.3,3.2,1,3.2,0,5c-1.3,1.6-0.6,1.1-3,2c-1.2-3.9-4.8-4.7-6-8
	c-2-5.7,2-10.6-4-14c0,0.3,0,0.7,0,1c-0.3-0.3-0.7-0.7-1-1c-0.8-1-0.4-0.3-1-2c1-1,2-2,3-3c-9.8-2.4-16.7-9.2-27-11c0,0.3,0,0.7,0,1
	c1.1,1.7,1.4,7.1,2,9c3-0.7,3-0.3,6,1c-1.9,3.9-1.1,7.9-2,13c-0.7,0-1.3,0-2,0c-1.8-2.3-6.8,1.9-9,2c-1.2-1.8-0.3-3-1-4
	c-1.6,2.5-4.5,4.3-7,3c-1.8-0.6-1-0.2-2-1c0.3,0,0.7,0,1,0c1.3-1.3,2.7-2.7,4-4c-4.2,1.5-6.7,1.2-9-2c1.9-0.7,3.9-1,7-1
	c0.3-2,0.7-4,1-6c5.1-0.7,7.8-3.2,8-9c-0.8-1-0.4-0.3-1-2c-2.4-1.2-3.5-1.9-5-4c-0.3,0-0.7,0-1,0c-1.4,6.9-4.2,6.9-7,9
	c2.3,1.6,2.4,1.5,3,5c-3.8-0.3-3.7-0.8-6-2c0,2,0,4,0,6c-1,0-2,0-3,0c-0.8-3.7-1.1-5.1-5-6c-1.8,2.4-3.3,3.4-7,4
	c-0.5-1.5-0.7-1.7-1-4c3.3-1,6.8-3.7,9-6c-1.3-1.7-1.6-3.1-2-6c1.5-0.5,1.7-0.7,4-1c0.6,2.2,0.7,2.7,2,4c2-3.1,2.8-3.8,8-4
	c0,0.3,0,0.7,0,1c-1.3,1.3-3.3,3-2,4c0.3,1,0.7,2,1,3c0.3,0,0.7,0,1,0c0.1-4.6,1.1-5.6,2-9c-7.3-1.7-14.7-3.3-22-5c0,0.3,0,0.7,0,1
	c1.8,1.6,1.4,0.9,2,4c-3.5,2.8-1.9,7.5-7,9c-0.3-0.3-0.7-0.7-1-1c1.5-4.8,2-10.3,4-14c-0.7,0-1.3,0-2,0c-0.9,0.9-1.8,1.3-3,2
	c0,3.1-0.3,5.1-1,7c-2.2-0.6-3.4-0.1-5-1c-0.8-1-0.4-0.3-1-2c2-2.8,3.3-6.5,5-9c-3.6-0.6-4.8-2-7-1c-2.5,1.3-0.7-0.4-2,2
	c4.6,5.9-1,13.5,0,20c0.7,0,1.3,0,2,0c1.7,1.1,4.9,1.1,8,1c-0.6,4.8-3.7,10.6-6,14c3.1,0.6,2.4,0.2,4,2c3.8,5.1,2.1,9.4,1,15
	c-2.1,0.4-1.9,0.2-3,1c0.7,0,1.3,0,2,0c1.3,1.7,2.7,3.3,4,5c2.3-1.8,2.1-2.4,6-3c0.3,0.3,0.7,0.7,1,1c-1,2.7-1.4,2.2-3,4
	c2.9,0.1,4.3,0.4,6,1c-1.2,4-1.7,3.6-1,8c-1.3,0-5-1-5-1c-3.3,2.4-1.2,4.4-7,3c-0.5,4.1-0.2,4.1-4,5c0-2.7,0-5.3,0-8
	c-0.3,0-0.7,0-1,0c-2.8,2-3.1,1.3-7,1c0-1,0-2,0-3c2.2-1.5,3-4.8,5-6c1.4-0.9,6,0,6,0c0-0.7,0-1.3,0-2c-2.2-0.9-1.4-0.9-3-2
	c-7.7,5.1-12.2-1.6-17-3c0.8-6.3,2.5-4.6,2-11c2.4-1.3,2.8-1.8,7-2c0.3,0.3,0.7,0.7,1,1c-3-4.2-11-6.4-17-9c0-0.3,0-0.7,0-1
	c3.4-1.8,2.1-1.2,3-5c-5.3-0.3-8.1-0.9-9-6c0.3-0.3,0.7-0.7,1-1c6.1-0.5,8-0.3,13,1c2.3-2.7,4.5-2.1,6-6c2.9-3.4,3-8.2,2-13
	c-3.8-0.1-3.5,0.5-5-2c2.4-1.3,4.7-2.4,6-5c-0.3,0-0.7,0-1,0c-2,2.1-6.7,4.3-9,3c-2.4-0.8-1.6-0.4-3-2c2.6-1.6,3.5-3,7-4
	c0-0.3,0-0.7,0-1c-4.5-1.3-5.8-3.9-9-6c-22.8-14.4-33.1-24.6-45-50c-0.3,0-0.7,0-1,0c0.4,16-4,22.5-9,32c-0.7,0-1.3,0-2,0
	c0.2-3.3,2.2-2.4-1-4c-2.5,6.7-17.1,11.9-26,12c0-0.7,0-1.3,0-2c10.6-2.1,32-11.9,33-23c3.4-4.6,2-14.4,0-19c-0.3,0-0.7,0-1,0
	c-0.4,4.2-2.4,4.9-3,7c-0.3,1.2,1.4,8,1,12c-1.8,0.6-1,0.2-2,1c-1.8-0.6-1-0.2-2-1c-2.2-2.2-2.2-4.9-3-6c-1.6,2.3-1.5,2.4-5,3
	c0.3-3.3,0.7-6.7,1-10c1,0,2,0,3,0c0-1,0-2,0-3c3.3-1.9,5.5-2.9,6-8c-2.8-2.5-15-9.6-16-11c-3.3-4.7-3-12.1-8-15
	c0.1,20.8-13.9,30.7-21,45c3.4-0.1,5.1,1.5,5,8c-1.8,0.6-1,0.2-2,1c-4.3-0.9-5.7-2.8-7-1c-10.3,10.8-14.9,40.8-11,60
	c-0.7,0-1.3,0-2,0c0-0.7,0-1.3,0-2c-2-2.9-1.9-8.1-4-11c0,0.7,0,1.3,0,2c-10.9,8.5-10.3,37.6-9,55c3.9-0.1,7-1.5,9,0
	c1,0.7,2,1.3,3,2c-0.3,1-0.7,2-1,3c-3,0.4-3.4,0.5-5,2c1.5,2,1.8,4.6,2,8c-0.7,0-1.3,0-2,0c0-0.7,0-1.3,0-2c-2.1-1.7-2.3-4-4-6
	c0,1,0,2,0,3c7,7.6,11.3,21.6,14,33c1.5,6.4-1,12.6,2,17c0-0.7,0-1.3,0-2c2.8-2.1,6.6-7.8,10-6c0.7,0.3,1.3,0.7,2,1
	c-1.3,6.2,0,9-3,14c5.3,0.4,6.5,2.1,10,4c0.3-1,0.7-2,1-3c1.7,0.9,4.7,1.6,5,2c0.8,1.1,0.6,0.9,1,3c-5.1,0.8-7.7,0.2-9,6
	c-3.8,0-6.3-0.4-9-1c0,0.7,0,1.3,0,2c0.3,0,0.7,0,1,0c2.5,2.2,4.6,2,8,4c-0.8,1.9-1.4,2.7-2,5c-0.7,0-1.3,0-2,0
	c-1.8-2.4-2.8-2.7-7-3c1.7,7.4,8.2,4.3,10,11c-0.3,0-0.7,0-1,0c-2.3-1.5-7.6-2-10-3c-0.9-1.5-1.8-2.9-3-4c0.2-9.2,4.4-13.9,0-19
	c0,0.7,0,1.3,0,2c-2.6,5.9-2.2,12.3,0,21c-0.7,0-1.3,0-2,0c0-0.7,0-1.3,0-2c-2-2.2-6.1-13.5-6-14c-2.6-0.2-3.4-0.4-5-1
	c0-0.3,0-0.7,0-1c0.7-0.7,1.3-1.3,2-2c-0.1-0.1-3.9-0.8-4-1c0.3-1.3,0.7-2.7,1-4c-1.4-2.6-3.2-0.5-4-5c1.7-0.6,3.2-0.9,6-1
	c2.2-0.9,2.9,0.2,6,1c0-1.3,0-2.7,0-4c-2.9-4.9-0.4-14-2-20c-2.4-9.3-7.6-17.2-10-26c-0.3,0-0.7,0-1,0c0,0.7,0,1.3,0,2
	c6,8.3-6.6,27.7-9,36c-0.7,0-1.3,0-2,0c0-1.7,0-3.3,0-5c4.6-5.2,9-19.1,9-29c-0.3,0-0.7,0-1,0c-1,3.2-3,5-5,4c-0.8-1-0.4-0.3-1-2
	c1.3-1.4,1.4-1.8,2-4c-4.4-0.7-9.5-2.4-11-7c0.7-0.7,1.3-1.3,2-2c-3.9-0.9-4.6-1.9-7-4c3.1-5.7,5.7-9.1,15-9c0.3,0.3,0.7,0.7,1,1
	c-0.6,1.8-0.2,1-1,2c-1.6,1.5-1.8,0.8-3,3c3-0.4,2.1-2,4,1c1.8,2.7,1.1,7.2,4,9c0-1.7,0-3.3,0-5c-2.9-3.3-2-14.2-2-23
	c0-16.9,3.8-28.9,9-41c2-4.6,5.2-7.9,6-14c-1,0-2,0-3,0c-0.6-1.8-0.2-1-1-2c0.3-0.3,0.7-0.7,1-1c3.4-2.3,3.2,1.6,4-4
	c2-3,1.1-8.6,3-12c7-12.8,14.6-25.8,22-38c-0.7,0-1.3,0-2,0c0,0.3,0,0.7,0,1c-0.8,1.1-0.6,0.9-1,3c-1,0-2,0-3,0c0-0.7,0-1.3,0-2
	c-0.8-1.1-0.6-0.9-1-3c2.4-1.3,7.4-2.3,10-4c5-5.3,7.8-15.2,8-25c-0.3,0-0.7,0-1,0c-2.5,4.4-8,0.1-9,0c-2.1,2.2-1.7,3.7-5,5
	c-1.1,0.8-0.9,0.6-3,1c-2.1-3.4-0.4-2-5-2c0.5-5.6,2.9-7.1,5-11c-5.2-0.9-7.7-5.3-11-6c-5.7,3-11.3,6-17,9c1.4,4.4,4,5.1,5,10
	c-0.3,0.3-0.7,0.7-1,1c-2.4-0.4-5.9-1.2-8-2c0.7,2.5,0.7,2.5,0,5c-3.8-0.7-4.5,0.1-7,3c-3.3-1.3-2.7-2.7-6-4c-1.3,1.6-2.1,2-4,3
	c0.4,3.3,1.1,4.3-1,7c-0.7,0.7-1.3,1.3-2,2c-2.4-0.9-1.6-1.1-4-2c-6.6,10.6-16.2,18.1-22,30c5.4,0.5,8.1,1.8,9,7
	c-0.3,0.3-0.7,0.7-1,1c-0.7,0-1.3,0-2,0c-1.1-3-1.5-2.7-4-4c-0.6,3.9-1.2,3.8-3,6c-2.7-1.2-2.1-1.9-5-3c-5.2,7.3-17.7,13-26,17
	c1.3,2.2,2.8,3.6,4,6c1.7-0.8,1.8-2.6,3-1c1.6,1.3,1.1,0.6,2,3c-0.3,0-0.7,0-1,0c-1.2,0.8-1.7,0.8-4,1c-1.9,0.7-5.5-1.9-6-1
	c-2.1,1.1-1.8,1.4-5,2l-9-4c0,0-3,1.8-6,2c0.1-2.9,0.4-4.3,1-6c-4.5,1.4-8.5-1.5-10-6c0.3,0,0.7,0,1,0c2,1.7,4,3.3,6,5
	c0.7-4,0.1-3.2,4-4c0.3,0.3,0.7,0.7,1,1c-0.7,2.5-0.7,2.5,0,5c0.3-0.3,0.7-0.7,1-1c0.8-1.1,1.5-3.7,2-5c-6-2.6-4.6-9.1-4-14
	c0.3-0.3,0.7-0.7,1-1c4,2,6,4.9,10,7c-0.2-6.5,0.7-10.1,5-12c0,0.3,0,0.7,0,1c0.8,1.1,0.6,0.9,1,3c-1.3,1.4-1.4,1.8-2,4
	c0.7,0,1.3,0,2,0c1.6-1.8,0.9-1.4,4-2c0.3,0.3,0.7,0.7,1,1c-0.6,1.8-0.2,1-1,2c-1,2.3-1.7,2.2-3,4c0.3,0,0.7,0,1,0
	c1.9-1.5,3.6-1.8,7-2c0,3.2-1.7,1.3,1,3c1.5-1.4,0.4,1.2,2,0c5.9-2.8,12.6-6.7,16-12c-1-1-2-2-3-3c0.3,0,0.7,0,1,0
	c1.2-0.8,4.8-1.2,6-2c2.1-2.2,4-5.9,5-9c-0.3,0-0.7,0-1,0c-5,4.6-16.9,5.7-25,4c-0.2,6.4-2.3,8.9-9,9c-0.3-1-0.7-2-1-3
	c3.8-1.4,5.2-1.3,6-6c-0.7,0-1.3,0-2,0c-0.7,0.7-1.3,1.3-2,2c0-0.3,0-0.7,0-1c-7.6-3.2-19.6-11.7-23-19c0.7,0,1.3,0,2,0
	c2.1,3,5.8,5.1,9,7c0.9-3.6,4.1-5.8,6-5c1.9,2.1,2.6,5.3,3,9c-3.2,0.8-1.5-0.5-3,2c1.7,0,3.3,0,5,0c1.5-2.5,0.6-2.2,4-3
	c1,0.8,0.3,0.4,2,1c0.1,3.7-1.2,2.4,3,3c8.7,6.1,29.2-3.5,31-9c-2.6-2.1-3.5-2.4-4-7c0.7,0,1.3,0,2,0c1.9,3.7,2.3,0.6,3,5
	c1,0,2,0,3,0c2.4-4.3,5.9-8.4,10-11c-2.6-2.7-5.4-4.2-7-8c1.9-1.1,4.5-2.5,6-4c-2.1-2.1-2.7-3.9-3-8c0.3-0.3,0.7-0.7,1-1
	c1.8,0.6,1,0.2,2,1c6.9,1.2,7.5,5.7,11,10c1.9-2,2.9-1.9,4-5c-4.1-0.9-6.7-2.2-8-6c0.9-1.3,0.9-2.5,1-5c1.6-0.6,2.4-0.8,5-1
	c3,2.9,6.4,3.5,8,8c-0.7,0.7-1.3,1.3-2,2c0.3,0,0.7,0,1,0c0.3-0.3,0.7-0.7,1-1c2.3-4.7,0.8-9,9-9c1.3,1.6,0.6,1.1,3,2
	c5.3-7.4,15.7-13.5,23-19c5.9-4.4,7.8-12.8,14-17c0-0.3,0-0.7,0-1c-2,0-4,0-6,0c-5.8,4.2-12.5,5.8-18,10c-3.1,2.4-2.9,7.9-6,10
	c-0.2-2.6-0.4-3.4-1-5c-0.8,1-0.4,0.3-1,2c-2.2,3.2,0.1,5-3,7c0-0.7,0-1.3,0-2c-1.2-1.8-0.3-3-1-4c-2.2,2.1-5.4,2.2-8,4
	c2.2,1.9,2.1,3.7,2,8c-2.2,1.7-2,2.8-5,4c-1.1,0.8-0.9,0.6-3,1c-0.3-0.3-0.7-0.7-1-1c0.1-2.6-0.1-1.6-1-5c2.4-1.9,4.1-5.7,6-8
	c-3.8-0.9-6.1-1.8-7-6c0.7,0,1.3,0,2,0c2.2,1.7,7.4,2.8,10,1c-5.1-1.2-7.6-4.1-8-10c0.3-0.3,0.7-0.7,1-1c2.5,0.9,4.9,1.6,8,2
	c0.3-1.7,0.7-3.3,1-5c1.3,0,2.7,0,4,0c1.3,1.8,2,1.7,3,4c-0.8,1.1-1.5,3.7-2,5c1,0,2,0,3,0c6.1-10.8,13-13.8,27-17c4-0.3,8-0.7,12-1
	c2.7-2.3,5.3-4.7,8-7c0-0.3,0-0.7,0-1c-6.2,0.1-11.3-1.7-13-6c0.7,0,1.3,0,2,0c1.7-1.1,4.9-1.1,8-1c0.1-4.3,0.8-7,2-10
	c3.3,1.2,5.8,3.3,9,5c0.9-9.7,6.2-19.7,14-25c4.7-3.2,9.4-1.5,11-8c-2.1-1.6-3.1-3.2-4-6c0.7-0.7,1.3-1.3,2-2c2.6,0.7,5.2,3.1,6,2
	c2.3-1.6,2.4-1.5,3-5c2.1,0.4,1.9,0.2,3,1c0.8,1.1,0.6,0.9,1,3c-2.1,2.3-2.8,5.7-4,9c0.3,0,0.7,0,1,0c0-0.3,0-0.7,0-1
	c2.2-2.5,0.7-3.1,5-4c2.8,3,12.3,1.7,17-2c0.3,0,0.7,0,1,0c0-4,0-8,0-12c-2.3,0-4.7,0-7,0c-0.6-1.6-0.8-2.4-1-5c1.6-1.6,2.2-3.6,4-5
	c1.8-1.2,3-0.3,4-1c1.8-2.2,2.6-5.5,3-9c-0.3,0-0.7,0-1,0c-0.3,3.1-1,4.7-2,7c-0.3,0-0.7,0-1,0c0-1.3,0-2.7,0-4
	c-2.3-0.3-4.7-0.7-7-1c-0.5-1.5-0.7-1.7-1-4c2.3-1.5,3-2.1,4-5c-3.4-1.8-5.5-4.1-6-9c0.7,0,1.3,0,2,0c3.4-2.3,6.8,0.1,10,1
	c0.4-4.5,1.3-4.3,3-7c1.8,1,1.7,1.3,4,2c1.6-14.4,11.1-29.8,18-40c-1.3,0-2.7,0-4,0c-3.6-1.5-17.8,0.4-21,3c1,0,2,0,3,0c0,1,0,2,0,3
	c3.3-0.3,6.7-0.7,10-1c0.5,1.5,0.7,1.7,1,4c-1,0.3-2,0.7-3,1c-2.3,1.5-4.3,0.6-7,0c-0.3,4.9-0.6,5.2-5,6c-1-2-2.1-4.6-3-7
	c-3.5,2.3-4.3-0.1-5,5c-4.1-0.4-5.8-1.6-9-3c0,0.3,0,0.7,0,1c2.3,2.5,1.7,3.4,1,7c-0.7,0-1.3,0-2,0c-1-1-2-2-3-3
	c0,8.4-2.3,15.3-5,21c0.3,0,0.7,0,1,0c0-0.3,0-0.7,0-1c2.2-2.2,1.1-3,5-4c0,2.3,0,4.7,0,7c-1.6,0.6-2.4,0.8-5,1
	c-0.7-0.7-1.3-1.3-2-2c-1.5,4.7-7.7,12-12,14c0,0.3,0,0.7,0,1c1,0,2,0,3,0c0,1.7,0,3.3,0,5c-0.7,0.7-1.3,1.3-2,2
	c-0.3-0.3-0.7-0.7-1-1c-2.2-2.2-0.3-2.3-2-5c-1,0.8-2.7,1.4-4,2c-1.2-3.3-2.1-2.3-3-6c0.7,0,1.3,0,2,0c2.2-1.3,4.4-0.2,6-1
	c4.5-3,5.7-8.9,7-15c5.1,0.1,4.4,2.2,5-3c2.2-2.7,2.9-6.3,3-11c-0.3,0-0.7,0-1,0c0,0.7,0,1.3,0,2c-9.4,6.4-12.7,16.8-27,19
	c0-0.7,0-1.3,0-2c5.2-1.3,7.3-4.4,12-6c-1.4-1.7-2.8-3-4-5c1-0.3,2-0.7,3-1c1.2-0.8,1.7-0.8,4-1c0.8,3.2-0.5,1.5,2,3
	c0-0.3,0-0.7,0-1c7-6.7,10.3-15.9,19-21c-2.6-2.5-4-1.4-5-6c2.3-1.2,2.3-1.6,6-2c4.2-2,4,2.6,6,0c0.8-1.1,0.6-0.9,1-3
	c2.1,0.4,1.9,0.2,3,1c1.2,1.8,0.3,3,1,4c1.8-1.5,4.4-2.3,7-3c-0.1-5.5,0.3-7.1,5-8c0.6,3.6,0.2,6,2,7c2-1.3,6.5-1.1,10-1
	c0.1-4.6,1.1-5.6,2-9c0.7,0,1.3,0,2,0c0,0.3,0,0.7,0,1c2.5,1.5,2,2.1,2,6c-0.7,0.7-1.3,1.3-2,2c2,0,4,0,6,0c1.5-3.1,3.2-5.2,6-7
	c-1-0.8-0.3-0.4-2-1c-1.1-0.8-0.9-0.6-3-1c0.4-2.1,0.2-1.9,1-3c3.4-2.2,7.2,0,10-1c1.3-1.3,2.7-2.7,4-4c0-0.3,0-0.7,0-1
	c-3.3,0-6-0.3-8-1c0-0.3,0-0.7,0-1c0.3-0.3,0.7-0.7,1-1c5.6-0.6,24.4-5.1,28-8c-11.4-5.1-33.4,0.6-38,9c0.3,0,0.7,0,1,0
	c-0.3,0.7-0.7,1.3-1,2c-1,0.3-2,0.7-3,1c-1.3-1.1-3.5-2.2-5-3c0,0.3,0,0.7,0,1c1.8,1.6,1.4,0.9,2,4c-0.7,0-1.3,0-2,0
	c-0.8-3-0.4-2.7-3-4c-1.7,1.9-1.4,1.7-5,2c-0.7-1-1.3-2-2-3c0.3-0.3,0.7-0.7,1-1c3.2-0.2,6.5-0.2,8-1c0.8-1,1.4-2.7,2-4
	c3.3,1.2,2.3,2.1,6,3c-0.5-3.4-0.8-2.2,1-5c0.7,0,1.3,0,2,0c0,0.7,0,1.3,0,2c0.3,0,0.7,0,1,0c-0.3,0.7-0.7,1.3-1,2c0.3,0,0.7,0,1,0
	c1.5-1.5,3.5-2.5,5-4c-0.7-0.7-1.3-1.3-2-2c5.8-1.6,15.2-3.9,24-4c-0.3-2.4-1.1-3.3,2-5c2.4,3.9,5.4,8.2,11,9
	c17.9-14.3,50.2-4.7,66,3c-1.2-2.8-2.6-4.5-4-7c2,0,4,0,6,0c3.6,3.4,3.5,1.9,8,1c0,2.3,0,4.7,0,7c6.2-0.7,11.3-4.8,13-10
	c1.2-1.8,1.1-11.8,1-18c-0.7,0-1.3,0-2,0c-1.8,4.4-4.1,2.6-9,2c0-1,0-2,0-3c4.9-3.3,5.3-5.2,11-6c0.3-2,0.7-4,1-6c-3.3-2-6.7-4-10-6
	c-5.5-1.7-5.4,2.7-9-2c1.3-0.5,3-1.2,4-2c-1.5-0.9-2.9-1.8-4-3c-6.2,1.8-8.7,5.3-15,2c-0.2,4.2-0.7,5.2-3,7c-1.9,1.5-3.3,1.9-5,1
	c-0.8-1-0.4-0.3-1-2c1.6-1.5,2.2-2.5,3-5c-0.3,0-0.7,0-1,0c-3.9,3.5-17.1,6.5-23,7c-1.6-2.1-4.5-4.9-7-6c0,0.3,0,0.7,0,1
	c3.3,2.4,4.1,4.9,4,11c-0.7,0.7-1.3,1.3-2,2c-2.5-1.1-3.2-1.7-7-2c-0.7,0.7-1.3,1.3-2,2c2.9,3.2,4.6,4.9,5,11c-2.1,1.3-2.3,2.1-5,3
	c-1.6-3.2-0.6,0.1-3-2c-1.4-1.5-1.7-4.3-3-6c-0.4,6.4-2.8,6.7-6,10c-1.7-0.3-3.3-0.7-5-1c-0.8-2.6-1.2-2.4-2-5c2.7-1.7,6.2-4.3,8-7
	c-3.3-2.2-5.1-5.4-9-7c-4.1,3.6-10,1.2-15,5c0.7,0,1.3,0,2,0c2,2.6,3.1,1.8,4,6c-1.9,0.7-3.9,1-7,1c-1.2-0.8-1.7-0.8-4-1
	c-1.1,3.9-3.1,5.8-7,7c0-0.3,0-0.7,0-1c-1.5-2.3-0.5-4.5-3-6c-0.7,0.7-1.3,1.3-2,2c1,2.5,2,2.9,1,5c-1.6,2.3-1.5,2.4-5,3
	c-1-2.3-0.7-2.8-3-4c0,0.3,0,0.7,0,1c-0.8,1.1-0.6,0.9-1,3c1.5,1.6,1.6,2,2,5c-2.2,1.8-3.6,3.3-5,6c-1,0-2,0-3,0c0-2.3,0-4.7,0-7
	c-0.3,0-0.7,0-1,0c0,0.7,0,1.3,0,2c-2,1.8-2.9,5.5-4,8c-0.7,0-1.3,0-2,0c0-0.3,0-0.7,0-1c1.3-1.4,1.4-1.8,2-4c-0.3,0-0.7,0-1,0
	c-2.2,2.9-4.7,3.1-10,3c-0.3-1-0.7-2-1-3c0.3,0,0.7,0,1,0c1-3.3,1.8-3.9,5-5c2.5-1.4,4.8,0.2,8,1c0.7-4.1,2.9-5.6,2-8
	c0-0.7,0-1.3,0-2c-0.3,0-0.7,0-1,0c0,1,0,2,0,3c-9.3,0.1-6.9,3.5-16,4c0,1.3,0,2.7,0,4c-3.9,2.8-6,8.8-11,10c-0.7-2-1-4.7-1-8
	c2.5-1.6,3.9-2.9,5-6c-1.6-1.3-1.1-0.6-2-3c4.7-0.7,9.3-1.3,14-2c0.6-1.7,0.9-3.2,1-6c-5.3-5.4-1.5-9.6-4-14
	c-2.4,3.8-16.4,21.7-20,23c0-0.3,0-0.7,0-1c2.6-2.8,2.8-6.6,5-10c2.7-4.1,7.2-7.7,10-12c-4.1-0.6-4.8-1.5-6-5c3.2-1.6-0.1-0.6,2-3
	c0.9-0.6,3.1-1.3,4-2c-0.9-1.3-0.9-2.5-1-5c1,0,2,0,3,0c2,3.3,4.4,6.2,9,7c1.6-2,3.6-2.8,6-4c-2.5-2.6-4.1-2.4-5-7
	c-6.5,0-5.7,1.6-13,2c-1-3.4-1.3-4.1-5-5c-5.1,3.9-15.8,3.3-20,8c-3.6,4.1-0.2,6.5-7,8c0-0.7,0-1.3,0-2c-0.7,0-1.3,0-2,0
	c0,0.3,0,0.7,0,1c-3.8,1.3-5.2,3.9-7,7c4.1,0.6,5.1,1.1,6,5c-1.7,0.6-3.2,0.9-6,1c-1-0.8-0.3-0.4-2-1c0,0.7,0,1.3,0,2
	c1.5,1.9,1.8,3.6,2,7c-2.1,1.1-1.8,1.4-5,2c-0.3-0.3-0.7-0.7-1-1c0-2.7,0-4.6-1-6c0,0.7,0,1.3,0,2c-3.5,3.7-4.9,9.9-7,15
	c2.3-0.4,1.1-0.9,3,0c1.5,2.2,0.8,4.8,0,7c2.8-0.3,2.1-1.1,4,0c0.8,1.1,0.6,0.9,1,3c-3,2.7,0.8,1.5,0,5c-1.5,2.5,0.2,1.1-3,2
	c-1-0.8-0.3-0.4-2-1c1.3,4.3,1.2,6.2-4,7c-0.6-0.9-2.7-1.5-3-2c-1.5-2.5,0.6-5,0-6c-1,0.8-0.3,0.4-2,1c-1,2-2,4-3,6
	c3.6,1.3,3.8,2.4,4,7c-1,1-2,2-3,3c-1.8-0.6-1-0.2-2-1c-2.5-1.3-0.7,0.4-2-2c1.6-1.3,1.1-0.6,2-3c-0.3,0-0.7,0-1,0c0,0.3,0,0.7,0,1
	c-4.5,4.9-4.8,13-9,15c-1.1,0.8-1.7,0.7-5,1c0-1,0-2,0-3c8.7-5.5,9.2-16.8,16-24c-1-2.7-1.3-1.7-2-5c3.6-1.3,5-4.2,6-8
	c-0.3,0-0.7,0-1,0c-1.9,3.2-3.1,4.6-8,5c0-1,0-2,0-3c1.6-1,10.3-6.8,11-8c1.2-1.5,2.2-4.2,3-6c-0.7,0-1.3,0-2,0
	c-1.9,1.9-3.5,2.5-7,3c0-1,0-2,0-3c2.8-1.5,5.7-2.7,7-6c0.4-3.1-2-4.8-2-9c3.3-2.5,12.5-10.2,14-10c2.2,1.2,1.5,1.5,3,3
	c2-2.7,5.6-5.8,9-7c0-0.3,0-0.7,0-1c-3,0.3-6,0.7-9,1c0-0.7,0-1.3,0-2c-6.7-12.5,15.3-3.4,18-3c5.5-5.2,15.2-8.3,25-9
	c0-3.8,0.4-6.3,1-9c1.5-0.5,1.7-0.7,4-1c3.6,4.2,4.9,1.4,11,1c1.6,6.7-0.3,8,8,8c5.7,1.3,11.3,2.7,17,4c0-1,0-2,0-3
	c2.4-1.1,1.8-1,3-3c6.6,3.3,10.2-0.9,18,0c10.4,1.2,13.6,10.3,26,8c0-0.3,0-0.7,0-1c-4.2,0.5-6.1,0.8-10,0c-1.2-2.3-1.6-2.3-2-6
	c1.6-0.6,2.4-0.8,5-1c4.1,3.9,7.4,2.8,14,4c-4.1-3.5-9.7-2.4-11-9c0.8-1,0.4-0.3,1-2c-4,0-8,0-12,0c-0.3,0.3-0.7,0.7-1,1
	c0.6,3.1,0.9,4.2,0,7c-1,0-2,0-3,0c-0.3-2.3-0.7-4.7-1-7c-22,1.7-34.1-5.6-52-5c0-1,0-2,0-3c1.3-0.7,2.7-1.3,4-2c-1-0.8-0.3-0.4-2-1
	c-0.7-0.7-1.3-1.3-2-2c-8.9,3.6-13.5,7.4-24,10c2,5.5-0.6,10.1-8,10c0.8-3.5,1.4-2.7,3-5c-0.7,0-1.3,0-2,0c-1.6,2.3-1.5,2.4-5,3
	c-0.6-1.8-0.2-1-1-2c0.7-1,1.3-2,2-3c-2,0-4,0-6,0c-7.8-5.2-19.9-1.1-29-2c0,1,0,2,0,3c-2.5,1.4-3.5,1.9-8,2c-1-1.8-1.3-1.7-2-4
	c1-0.3,2-0.7,3-1c0-0.3,0-0.7,0-1c-9-2.7-12.8-11.3-21-12c-1.2,0.8-1.7,0.8-4,1c-0.3-1-0.7-2-1-3c3.7-1.8,4.9-2.9,11-3
	c1.2,0.8,1.7,0.8,4,1c1.3-1.6,0.6-1.1,3-2c0-0.3,0-0.7,0-1c-4.6-1.3-21.1-12.6-23-11c-2.9,1.8-2.9,2.7-8,3c-0.7-1-1.3-2-2-3
	c0.3,0,0.7,0,1,0c1.2-0.8,4.6-1.5,6-2c-1-0.8-0.3-0.4-2-1c-3.6-2.6-11.7-2.2-14-6C177.9,75.7,177.9,74.5,178,72z"/>
<path class="st0" d="M162,80c2.9,0.1,4.3,0.4,6,1c-0.3,0.7-0.7,1.3-1,2c-2.7,1.3-3.3,2.3-7,3c0-0.7,0-1.3,0-2c-0.7,0-1.3,0-2,0
	c0,0.3,0,0.7,0,1c-6.3,1.7-8.9,6.5-14,9c0-0.7,0-1.3,0-2C148.1,89.4,160.6,82,162,80z"/>
<path class="st0" d="M369,91c0.4,2.1,0.2,1.9,1,3c0-1,0-2,0-3C369.7,91,369.3,91,369,91z"/>
<path class="st0" d="M282,94c1,0.8,0.3,0.4,2,1C283,94.2,283.7,94.6,282,94z"/>
<path class="st0" d="M273,106c-1.3,0-2.7,0-4,0c0.3,2.2,0.2,3.2-1,6c-4.5-1.7-8.1-1.4-12,2c10,0.6,18.1,0.1,26-2
	c-1.5-2.1-1.8-1.9-2-6c0.3-0.3,0.7-0.7,1-1c7.7-0.8,13.4,0.3,19-1c0-0.3,0-0.7,0-1c-6.4-1.6-9.6-4.7-18-5c-2.2,2.1-5.9,4-9,5
	C273,104,273,105,273,106z"/>
<path class="st0" d="M359,98c1.7,1.1,2.3,1,4,0C361.7,98,360.3,98,359,98z"/>
<path class="st0" d="M224,101c-1,0.8-0.3,0.4-2,1c0,0.3,0,0.7,0,1c1.7,0,3.3,0,5,0c0-0.3,0-0.7,0-1C226,101.7,225,101.3,224,101z"/>
<path class="st0" d="M369,101c-1.4,1.3-1.8,1.4-4,2c0,0.3,0,0.7,0,1c0.7,0,1.3,0,2,0c1.5-0.7,0.1-0.1,3,0
	C369.6,101.9,369.8,102.1,369,101z"/>
<path class="st0" d="M319,102c4.2,4.1,6.4,0.8,9,2c1,1,2,2,3,3c-1.1,2.5-1.7,3.2-2,7c0.7,0,1.3,0,2,0c1.7,1.3,4.2,1.7,7,2
	c0-0.3,0-0.7,0-1c-0.9-0.9-1.3-1.8-2-3c1.7-1,6.6-4.9,5-6c-1.5-2.5-1.3-1.8-5-2C332.4,101.7,324.5,101.9,319,102z"/>
<path class="st0" d="M314,103c-1.3,0.9-2.5,0.9-5,1c0,0.7,0,1.3,0,2c0.7,0,1.3,0,2,0c1.7,1.7,3.7,2.7,5,2c0.3,0,0.7,0,1,0
	C314.9,105.4,315.5,105,314,103z"/>
<path class="st0" d="M213,104c1.6,3.4,3.2,5.7,7,7c6.1,4.9,16.3,3.8,24,2c0-0.3,0-0.7,0-1c-4.4-1.1-7.6-5.2-11-6
	c-3.3,0.7-6.7,1.3-10,2C220.3,107.3,216.6,104.9,213,104z"/>
<path class="st0" d="M258,105c-2.1,0.4-1.9,0.2-3,1c1.5,1.2,1.8,2.6,3,4C258,108.3,258,106.7,258,105z"/>
<path class="st0" d="M240,106c2,2.6,5.3,4.1,9,5C246.8,108.6,243.5,107,240,106z"/>
<path class="st0" d="M287,108c0.1,2.2-0.2,0.7,2,1c0-0.3,0-0.7,0-1C288.3,108,287.7,108,287,108z"/>
<path class="st0" d="M326,109c1,0.8,0.3,0.4,2,1C327,109.2,327.7,109.6,326,109z"/>
<path class="st0" d="M347,113c-2.3,2.5-4.9,1.8-8,2c0,0.3,0,0.7,0,1c3.3,0,6.7,0,10,0c0-0.3,0-0.7,0-1
	C348.3,114.3,347.7,113.7,347,113z"/>
<path class="st0" d="M393,131c3.6-0.5,13.1-1.9,16-4c-6.9-0.1-8.6,0.2-15,1c0-0.3,0-0.7,0-1c0.3,0,0.7,0,1,0c2.9-3.5,8.1-2.4,12-5
	c-3.4-0.9-10-4.1-12-3c-2.5,0.8-4.3,2.4-6,4C391.1,125.1,392.4,127.4,393,131z"/>
<path class="st0" d="M415,118c2.3,0.3,2.5,0.5,4,1c-0.3,1-0.7,2-1,3c-1,0-2,0-3,0C414.6,119.6,414.4,120.5,415,118z"/>
<path class="st0" d="M317,120c1,0.3,2,0.7,3,1c0.5,3.5,1.2,4,2,7c-1.3,0-2.7,0-4,0c-0.3-1-0.7-2-1-3C315.7,123,316.3,122.2,317,120z
	"/>
<path class="st0" d="M267,128c1,0,2,0,3,0c0,0.7,0,1.3,0,2c0.3,1,0.8,0.4,0,1c-0.7,0.7-1.3,1.3-2,2c-1.8-0.6-1-0.2-2-1
	c-1.6-1.3-1.1-0.6-2-3C266.1,128.6,265.9,128.8,267,128z"/>
<path class="st0" d="M343,129c-0.9,0.9-1.8,1.3-3,2c4,4.4,10.2,4.2,19,4c0-0.3,0-0.7,0-1C355,133.3,347.7,130.7,343,129z"/>
<path class="st0" d="M303,130c0.6,3.5,0.1,4.9,2,6c1,1,2,2,3,3c4-0.9,11-3.5,14-6C316.2,131.8,309.9,130.3,303,130z"/>
<path class="st0" d="M384,131c0,0.7,0,1.3,0,2c0.3,0,0.7,0,1,0c0-0.7,0-1.3,0-2C384.7,131,384.3,131,384,131z"/>
<path class="st0" d="M390,141c1,0,2,0,3,0c1.8,3.2,2.1,4.5,7,5c5.2-5.3,24.6-4.4,28-10c-0.3-0.3-0.7-0.7-1-1c-6.9-0.2-9.3-1.9-17-2
	c-1.2,3.5-2.8,3.7-5,6c-1.8-0.6-1-0.2-2-1c-0.8-1.1-0.6-0.9-1-3c1.8-0.6,1-0.2,2-1c-4.9,0-12.1,0.7-15,3
	C389.8,138.2,389.8,138.7,390,141z"/>
<path class="st0" d="M306,150c0-1.7,0-3.3,0-5c-0.3,0-0.7,0-1,0c-3.6,3.5-5.1,3.2-5,11c-1.3,1.7-1.7,1.6-1,3c1.3,1.3,3,3.3,4,2
	c3.3-3.8,1.8-6.6,9-7c-0.3,3-0.7,6-1,9c2.9,0.8,2.6,1.4,6,2c0-0.3,0-0.7,0-1c-2.1-2.3-2.1-5.3-2-10c1.5-0.5,1.7-0.7,4-1
	c1.5,3.3,3.2,4.4,5,7c0.3-0.3,0.7-0.7,1-1c0.3,0,0.7,0,1,0c-2.4-2.8-4.2-5.4-5-10c0.7,0,1.3,0,2,0c7.5,5.6,10.1,1.4,18,0
	c-0.3,2.3-0.7,4.7-1,7c1.3,0,2.7,0,4,0c1.2-0.8,1.7-0.8,4-1c-0.2-4.9-1.3-5-2-9c4.9,0.8,3.9,1.4,9,1c0.4,2.1,0.9,4.6,2,6
	c4.1-3.7,12.1-6.5,17-9c-1.1-2.1-1.4-1.8-2-5c-6.3,0.5-6.3,3.3-11,5c0-0.7,0-1.3,0-2c0.7-0.7,1.3-1.3,2-2c-0.3,0-0.7,0-1,0
	c-1.7,1.3-1.6,1.7-3,1c-0.3-0.3-0.7-0.7-1-1c0.3,0,0.7,0,1,0c1.7-1.3,3.6-1.4,5-3c-0.3,0-0.7,0-1,0c-6.3,4.1-17.6,1.2-26,1
	c0.3,3.5,0.9,6.1-3,8c-1.2,0.8-1.7,0.8-4,1c-0.9-3-0.4-5.5-1-8c-4.1,0.9-3.4-0.1-6-3c-2.9,2.7-8.3,4.3-12,6c0.6,2.7,1.5,4.6,0,7
	C309.7,149.9,308.5,149.9,306,150z"/>
<path class="st0" d="M379,137c1.7,1.1,2.3,1,4,0C381.7,137,380.3,137,379,137z"/>
<path class="st0" d="M282,147c-1.7,0-3.3,0-5,0c-0.3-1-0.7-2-1-3c2.8-0.6,3.6-1.8,5-1C281.8,144.2,281.8,144.7,282,147z"/>
<path class="st0" d="M493,147c1,0.8,0.3,0.4,2,1C494,147.2,494.7,147.6,493,147z"/>
<path class="st0" d="M373,148c-0.3,0.7-0.7,1.3-1,2C373.7,148.6,373,148,373,148z"/>
<path class="st0" d="M496,148c1.9,1.5,5.5,2.1,8,3C502.2,148.9,499.6,148.4,496,148z"/>
<path class="st0" d="M369,150c-1.9,2.2-4.5,2.4-6,5c0.7,0,1.3,0,2,0c1.4,2,1.3,2.1,4,3c0-0.3,0-0.7,0-1c0.3,0,0.7,0,1,0
	c-0.9-3.3-0.4-3.9,1-7C370.3,150,369.7,150,369,150z"/>
<path class="st0" d="M394,156c0.4-3.2,1-3.8,2-6c0.7,0,1.3,0,2,0c0.6,1.8,0.2,1,1,2c-0.6,1.8-0.2,1-1,2
	C396.5,156.5,397.6,155.5,394,156z"/>
<path class="st0" d="M387,162c1.8,1.6,1.4,0.9,2,4c-1.5,0.5-1.7,0.7-4,1c-0.3-1.3-0.7-2.7-1-4C386.1,162.6,385.9,162.8,387,162z"/>
<path class="st0" d="M233,164c1,0.8,0.3,0.4,2,1C234,164.2,234.7,164.6,233,164z"/>
<path class="st0" d="M318,164c0,1.7,0,3.3,0,5c0.3,0,0.7,0,1,0c0.7-0.7,1.3-1.3,2-2C320,166,319,165,318,164z"/>
<path class="st0" d="M312,169c1,0.8,0.3,0.4,2,1C313,169.2,313.7,169.6,312,169z"/>
<path class="st0" d="M241,176c-1.3,0-2.7,0-4,0c0-2,0-4,0-6c0.7,0,1.3,0,2,0C240.5,172.1,240.8,171.9,241,176z"/>
<path class="st0" d="M219,174c4.1,0.2,4.6,0.1,6,3c0.3,1,0.8,0.4,0,1c-1.6,1.2-0.5,0.6-2,0C219.9,177,220.1,177,219,174z"/>
<path class="st0" d="M469,176c0,0.7,0,1.3,0,2c0.3,0,0.7,0,1,0c0-0.7,0-1.3,0-2C469.7,176,469.3,176,469,176z"/>
<path class="st0" d="M267,177c0.7,0,1.3,0,2,0c0,1.3,0,2.7,0,4c-2.5,1.5-2.3,2.3-6,3c-0.3-0.3-0.7-0.7-1-1c0.3-1,0.7-2,1-3
	C264.5,179.1,265.9,178.2,267,177z"/>
<path class="st0" d="M310,177c-0.3,1-0.7,2-1,3c0.7,0,1.3,0,2,0C310.6,177.9,310.8,178.1,310,177z"/>
<path class="st0" d="M336,181c1.7,0.3,3.3,0.7,5,1c0,1,0,2,0,3c-0.3,0.3-0.7,0.7-1,1c-1.8-0.6-1-0.2-2-1
	C335.5,183.5,336.5,184.6,336,181z"/>
<path class="st0" d="M270,186c0.7,0,1.3,0,2,0c0,2.7,0,5.3,0,8c-0.7,0-1.3,0-2,0C270,191.3,270,188.7,270,186z"/>
<path class="st0" d="M366,201c-0.7,4.7-4.2,8.2-3,11c0.6,3,0.6,3.7,3,5c1.9-0.9,1.2-0.4,4,0c0.6,1.6,0.8,2.4,1,5
	c-2.3,0.3-2.5,0.5-4,1c0,0.7,0,1.3,0,2c3.5,1.2,3.7,2.8,6,5c-0.6,1.8-0.2,1-1,2c-1.7,2-2.1,1.9-6,2c-1.3-1.3-3-3.3-4-2
	c-0.3,0-0.7,0-1,0c0,0.3,0,0.7,0,1c4,0.7,3.2,0.1,4,4c-1.4,2-1.7,5.7-1,7c2,2,4,4,6,6c-0.3,1.7-0.7,3.3-1,5c-0.7,0-1.3,0-2,0
	c0-0.3,0-0.7,0-1c-1.5-1.6-0.8-1.8-3-3c0,0.3,0,0.7,0,1c0.9,1.8,0.3,1.8,0,5c-1.6-0.2-5-2-5-2c-2.6,1.6-1.2,3.2-6,4
	c-0.8-1.4-2.1-4.6-3-3c-3.5,2.1-2.9,4.2-8,5c-0.6-1.6-0.8-2.4-1-5c5.1-6,8.7-7.8,13-14c1.7,1,3.3,2,5,3c0-0.3,0-0.7,0-1
	c-2.3-3.5,0.6-7.2,2-10c-0.3,0-0.7,0-1,0c-1.8,1.8-7.4,4.3-9,1c-0.6-1.3,1.1-7.2,1-8c-2.2,1.5-3.3,2.7-6,4c2,5.3-0.6,5.3-1,13
	c-5.5,0-7.9,1.5-10-3c0,0.7,0,1.3,0,2c-1,0.3-2,0.7-3,1c1.8,2.8,3.2,2.8,4,7c-5.3,1.7-5.2,0.4-5,9c0.8,1.1,0.6,0.9,1,3c1,0,2,0,3,0
	c0.4,2.1,0.2,1.9,1,3c2.6-1.4,8.9,1.5,11,2c-0.3-1-0.7-2-1-3c0.7,0,1.3,0,2,0c0,0.3,0,0.7,0,1c1.3,1.7,1.6,3.1,2,6
	c-1.3,1.4-2.1,3.2-3,5c-4-1-6.6-1.1-9,1c2,2.3,4,4.7,6,7c0.3-0.3,0.7-0.7,1-1c6.7-4.5,3.2-13.8,14-15c1.4-1.3,1.8-1.4,4-2
	c1.2,2.3,1.6,2.3,2,6c-3.7,2.3-6.4,4.3-12,5c0.3,3.7,0.7,7.3,1,11c3.5,1.8,1.9,3.2,7,4c9.5,7.2,24.8,4.4,34-1c0-0.3,0-0.7,0-1
	c-2,0-4,0-6,0c0,0.3,0,0.7,0,1c-0.3-0.3-0.7-0.7-1-1c-0.8-1-0.4-0.3-1-2c2.5-1.4,3.5-1.9,8-2c1.9,1.8,0.8,1.8,3,1
	c2.9-3.3,5.3-12.1,6-17c-3.7-1.7-2.1-0.3-2-4c7.2-4.9,10.8-31.5,13-42c-0.3,0-0.7,0-1,0c0,0.3,0,0.7,0,1c-14.9,10.5-9.6,43-33,45
	c0-0.3,0-0.7,0-1c0.3,0,0.7,0,1,0c1.3-1.7,2.7-3.3,4-5c-0.3,0-0.7,0-1,0c-1,0.8-2.7,1.4-4,2c0-0.7,0-1.3,0-2c6.5-2.9,11-5.5,14-12
	c-0.3,0-0.7,0-1,0c-2.3,2.4-4.9,4.3-9,5c0-0.3,0-0.7,0-1c0.3,0,0.7,0,1,0c3-3.9,7.9-5,10-10c4.4-10.5,4.1-28.8,12-35
	c0.9-0.6,3.1-1.3,4-2c-9.4-3.3-26.6-18.7-39-9c1.6,1.8,1.7,2.5,2,6c-0.9,0.9-1.3,1.8-2,3c-1.7-0.3-3.3-0.7-5-1c-0.6-1.8-0.2-1-1-2
	c0.7-2,1.3-4,2-6C368,201,367,201,366,201z"/>
<path class="st0" d="M538,198c3.2,0.8,1.5-0.5,3,2C538.6,199.2,539.4,199.6,538,198z"/>
<path class="st0" d="M528,200c1.8,1.6,1.4,0.9,2,4c-0.7,0-1.3,0-2,0C528,202.7,528,201.3,528,200z"/>
<path class="st0" d="M347,203c-3.3,4.8-8.6,6.5-14,10c0,0.7,0,1.3,0,2c2.2,0.9,1.4,0.9,3,2c0-0.3,0-0.7,0-1c4.4-3.8,8.8-8.1,12-13
	C347.7,203,347.3,203,347,203z"/>
<path class="st0" d="M360,203c-1.7,2.7-2.5,2.5-3,7c0.3,0,0.7,0,1,0c0.3-0.3,0.7-0.7,1-1c1.1-2.3,2.1-3.3,3-6
	C361.3,203,360.7,203,360,203z"/>
<path class="st0" d="M214,209c-0.4,2.1-0.2,1.9-1,3c-1.5,1.5-3.5,2.5-5,4c-1.8-0.6-1-0.2-2-1c-0.7-0.7-1.3-1.3-2-2
	c0.3-0.3,0.7-0.7,1-1C207.3,209.7,209.3,209.1,214,209z"/>
<path class="st0" d="M350,214c0-1.7,0-3.3,0-5c-0.3,0-0.7,0-1,0c-2,2.3-4,4.7-6,7c0.3,0,0.7,0,1,0C345.7,214.7,347.1,214.4,350,214z
	"/>
<path class="st0" d="M355,217c-0.9,1.5-2.8,0.7-1,2c0,0.3,0,0.7,0,1c0.8-1,0.4-0.3,1-2C355.3,217,355.8,217.6,355,217z"/>
<path class="st0" d="M339,220c-1,2.8-2.5,1.4,0,3c3.1-1.8,4.3,0.3,8,1c0-0.7,0-1.3,0-2c-0.3-0.3-0.7-0.7-1-1
	C342.9,221,340.9,220.7,339,220z"/>
<path class="st0" d="M466,222c0.8,1,0.4,0.3,1,2c-2.3,1.5-3,2.1-4,5c-0.3,0-0.7,0-1,0c0-1,0-2,0-3c0.8-1,0.4-0.3,1-2
	C464.3,223.3,465.1,222.9,466,222z"/>
<path class="st0" d="M197,224c4.8,0,6-0.3,7,2c-0.7,0.3-1.3,0.7-2,1c-2.6,1.8-9,5.2-12,6c0-1.3,0-2.7,0-4c2.3-1.3,2.7-1.7,4-4
	C196.1,224.6,195.9,224.8,197,224z"/>
<path class="st0" d="M209,225c0,1,0,2,0,3c-1.8,1.1-3.6,2.5-5,4c-1.8-0.6-1-0.2-2-1c-1.8-0.6-1-0.2-2-1c0.3,0,0.7,0,1,0
	c1.7-2,3.3-4,5-6C207.1,224.8,206.9,224.6,209,225z"/>
<path class="st0" d="M179,229c1.7,0,3.3,0,5,0c0.9,2.4,1.1,1.6,2,4c-5,0-10,0-15,0c-2-1.3-5.3-1.5-7-3c5.1,0,10.9,0.6,15,2
	C179,231,179,230,179,229z"/>
<path class="st0" d="M480,229c1.1,1.7,1.8,1.1,0,2c-1.4,1.1-2.9,1.5-5,2c0-0.7,0-1.3,0-2C477.1,230.5,478.6,230.1,480,229z"/>
<path class="st0" d="M307,283c0,1.3,0,2.7,0,4c-1,0-2,0-3,0c0,1,0,2,0,3c-0.7,0.3-1.3,0.7-2,1c0,0.3,0,0.7,0,1c-0.3-0.3-0.7-0.7-1-1
	c-1.3-1.3-2.7-2.7-4-4c0,1,0,2,0,3c4,2.4,5.1,4.2,5,11c-5.9,3.4-8.4,4.9-8,15c0.7,0,1.3,0,2,0c4.2-3.3,13-0.9,18-4c-1,0-2,0-3,0
	c-0.2-5.5-0.6-5.9,1-10c0.7,0,1.3,0,2,0c2,3.4,2.4,9.1,3,10c1.2-1.2,2.8-1.8,4-3c-2.1-2.6-2.8-7.7-3-12c-1.3-0.3-2.7-0.7-4-1
	c0,3.2,1.4,1.9-2,3c-0.8-2.2-1-5.4-1-9c0.7-0.7,1.3-1.3,2-2c-1.8-7.2-2.9-6.1-1-15c2.3-1.2,2.3-1.6,6-2c0-1.7,0-3.3,0-5
	c-4.8,1.4-7.1-0.6-7-7c1.8-0.8,3.7-1.7,5-3c2.2,0.9,1.4,0.9,3,2c-0.1-7.9,1.6-12.9,3-19c-4.2-0.7-4.3-0.8-5-5c0.8-1,0.4-0.3,1-2
	c-0.3,0-0.7,0-1,0c0,0.3,0,0.7,0,1c-4.4,4.7-8.2,14.3-10,21c2.9,1.3,2.9,0.6,2,3c-0.5,0.4-4,0-4,0c-1.4,1.8-4,16.9-4,17
	c1.8,3,2.8,3.8,3,9c-2.5,1.3-0.7-0.4-2,2c0.3,0,0.7,0,1,0C304.6,283.2,303.9,283.6,307,283z"/>
<path class="st0" d="M432,234c0.4,2.1,0.2,1.9,1,3c0-1,0-2,0-3C432.7,234,432.3,234,432,234z"/>
<path class="st0" d="M327,237c-1.5,2.6-2.4,3.1-3,7c0.3,0,0.7,0,1,0c1-0.8,0.3-0.4,2-1c0-1.7,0-3.3,0-5
	C327.3,237,327.8,237.6,327,237z"/>
<path class="st0" d="M261,245c-2.1-0.4-1.9-0.2-3-1c-0.8-1.1-0.6-0.9-1-3c1.5-1.1,0.8-1.1,3-2c0-0.3,0-0.7,0-1c0.3,0.3,0.7,0.7,1,1
	C262.2,241.1,261.4,241.8,261,245z"/>
<path class="st0" d="M431,238c0.1,2.5,0.1,3.7,1,5C431.9,240.5,431.9,239.3,431,238z"/>
<path class="st0" d="M284,241c2.1,0.4,1.9,0.2,3,1c1.1,1.5,2.1,3.1,1,4c-2,2.8-3,3-8,3c-0.5-1.5-0.7-1.7-1-4
	C280.8,243.9,282.6,242.5,284,241z"/>
<path class="st0" d="M301,243c3.1,1.2,2.3,0.4,3,4c-1.5,0.5-1.7,0.7-4,1C299.4,244.9,299.5,245.9,301,243z"/>
<path class="st0" d="M315,246c1,0.3,2,0.7,3,1c0,0.7,0,1.3,0,2c-0.7,0.3-1.3,0.7-2,1c0,0.3,0,0.7,0,1c-0.3-0.3-0.7-0.7-1-1
	C313.9,248,314.4,248.2,315,246z"/>
<path class="st0" d="M360,247c0,0.7,0,1.3,0,2c0.7,0,1.3,0,2,0c0-0.3,0-0.7,0-1C361.3,247.7,360.7,247.3,360,247z"/>
<path class="st0" d="M428,247c-0.6,4-2.8,7.9-1,11C427.6,254.1,429.4,249.6,428,247z"/>
<path class="st0" d="M322,256c0,5.3,0,10.7,0,16c2.1-0.4,4.5,0.6,5,0c1.3-0.7,2.1-1.1,3-2c-3.8-4.1-1.7-8.7-3-16c-0.3,0-0.7,0-1,0
	C324.4,255.8,325.1,255.4,322,256z"/>
<path class="st0" d="M403,255c1.3,0,2.7,0,4,0c-0.3,2.3-0.5,2.5-1,4c-1.8-0.6-1-0.2-2-1C403.2,256.9,403.4,257.1,403,255z"/>
<path class="st0" d="M425,259c-0.3,1.7-0.7,3.3-1,5c0.3,0,0.7,0,1,0c0-0.7,0-1.3,0-2C425.9,260.3,425.9,260.7,425,259z"/>
<path class="st0" d="M219,263c2.9,1.9,3.6,3.6,5,7c-2.7,0-5.3,0-8,0c-1.2-0.8-1.7-0.8-4-1c0-0.7,0-1.3,0-2c2,0.3,4,0.7,6,1
	C217.4,264.9,217.5,265.9,219,263z"/>
<path class="st0" d="M263,267c1.9,1.7,1.7,1.4,2,5c-0.3,0.3-0.7,0.7-1,1c-1.8-0.6-1-0.2-2-1C260.6,269.4,261.8,269.4,263,267z"/>
<path class="st0" d="M312,268c-0.3,2-0.7,4-1,6c-1.8,0.6-1,0.2-2,1c-1.8-0.6-1-0.2-2-1c-0.8-1-0.4-0.3-1-2c1.6-1.3,2-2.1,3-4
	C310,268,311,268,312,268z"/>
<path class="st0" d="M369,275c1,0.3,2,0.7,3,1c0,0.7,0,1.3,0,2c-3,2.3-6,4.7-9,7c-1.8-0.6-1-0.2-2-1c-0.8-1-0.4-0.3-1-2
	C363.2,280.2,366.6,277.7,369,275z"/>
<path class="st0" d="M327,277c1,0.8,0.3,0.4,2,1C328,277.2,328.7,277.6,327,277z"/>
<path class="st0" d="M334,284c-1.7-0.3-3.3-0.7-5-1c0,0.3,0,0.7,0,1c2.5,2.7,2,8.4,3,10c-1.3,0.9-2.5,0.9-5,1c-1-1.7-2-3.3-3-5
	c-0.3,0-0.7,0-1,0c0,1.3,0,2.7,0,4c-1.1,2.1,1.7,8.9,3,12c5.6-3.4,13.3-8.3,18-13c-1.3-1.2-8.9-13.9-10-16c-1,0.3-2,0.7-3,1
	c0,0.7,0,1.3,0,2C334.1,281.2,333.3,280.4,334,284z"/>
<path class="st0" d="M238,289c0.3-1.7,0.7-3.3,1-5c1,0,2,0,3,0c0.3,0.3,0.7,0.7,1,1c-0.6,1.8-0.2,1-1,2
	C240.5,289.5,241.6,288.5,238,289z"/>
<path class="st0" d="M351,308c-4.3,2.9-11.1,5.7-16,7c0,0.3,0,0.7,0,1c0.7,0,1.3,0,2,0c2.2-1.4,3.3-0.5,6,0c0,0.7,0,1.3,0,2
	c-0.3,0-0.7,0-1,0c-2.3,1.7-5.4,1.4-7,4c8.3,5.4,18.8,17.9,22,28c0.3,0,0.7,0,1,0c1.5-4.7,1.2-1.2,4-3c-7.4-8.6-11.1-27.3-7-39
	C353.7,308,352.3,308,351,308z"/>
<path class="st0" d="M359,308c-0.2,2.6-0.4,3.4-1,5c1,0,2,0,3,0c0.7-1,1.3-2,2-3C361.2,309,361.3,308.7,359,308z"/>
<path class="st0" d="M333,316c-0.3,0.7-0.7,1.3-1,2C333.7,316.6,333,316,333,316z"/>
<path class="st0" d="M455,317c0.7,0,1.3,0,2,0c0.2,7.3-0.1,14.2-2,19c-1,0.3-2,0.7-3,1c0-2,0-4,0-6C454.6,327.5,455.1,323.1,455,317
	z"/>
<path class="st0" d="M327,320c3.5,1.6,4.7,4.1,5,9c-1.8,2-1.1,3-2,4c-1.2,0.8-1.7,0.8-4,1c-0.3-1-0.7-2-1-3
	C323,327.9,325.5,322.7,327,320z"/>
<path class="st0" d="M263,324c1,0.8,0.3,0.4,2,1C264,324.2,264.7,324.6,263,324z"/>
<path class="st0" d="M314,336c-4,0.8-4.4,2.9-7,2c-0.9-1.3-0.9-2.5-1-5c0.8-1.1,0.6-0.9,1-3c2.3-0.3,4.7-0.7,7-1
	c0.5,1.5,0.7,1.7,1,4C314.2,334.1,314.4,333.9,314,336z"/>
<path class="st0" d="M490,331c0.7,0,1.3,0,2,0c0.5,3.5,1.2,4,2,7c-0.7,0-1.3,0-2,0c0-0.7,0-1.3,0-2C490.9,334.6,490.5,333.1,490,331
	z"/>
<path class="st0" d="M336,340c0-2.3,0-4.7,0-7c0.7,0,1.3,0,2,0c0-0.3,0-0.7,0-1c0.3,0.3,0.7,0.7,1,1c0.7,0.7,1.3,1.3,2,2
	c-0.7,1.7-1.3,3.3-2,5C338,340,337,340,336,340z"/>
<path class="st0" d="M347,346c2.3,0.3,2.5,0.5,4,1c0,0.7,0,1.3,0,2c-2.3,2-2.1,4.5-5,6c-1.2,0.7-1,0.1-4,0c0.1,2.6,0.9,3.7-3,5
	c0,0.3,0,0.7,0,1c-0.3-0.3-0.7-0.7-1-1c-2.1-4.5,2.6-3.9,4-7c1.1-2.4,0.6-7.1,1-9c2.3-0.3,2.5-0.5,4-1C347,344,347,345,347,346z"/>
<path class="st0" d="M276,411c-6.7,0-6.5-2.2-10-4c-0.3,0.3-0.7,0.7-1,1c-3.7,1.5-2.9,1.7-7,0c-0.9,3.9-1,3.4-5,4
	c-1.9-2.9-3.3-3.5-4-8c0.7,0,1.3,0,2,0c1.1-0.8,0.9-0.6,3-1c1.4,1.5,3.2,2.9,5,4c0-0.3,0-0.7,0-1c-1.4-2.6-0.2-2.6,1-5
	c-3.4-1.5-5.7-2.3-7-6c0.7-0.7,1.3-1.3,2-2c-2.8,0.5-3.7,1.4-6,0c-2.9-2.7-3.1-3.4-3-7c5.5,0.2,11.1,0.3,14-2c-2-1.8-1.6-4.5-4-6
	c-2,2.1-6.7,4.3-9,3c-0.8-1.2-0.8-1.7-1-4c2.7-1.3,4.5-4.6,6-7c-4.2-2.8-4.6-5.6-4-11c5.1,0.2,5.8,1.4,9,3c0-0.3,0-0.7,0-1
	c-1.9-1.5,2.8-6.7,7-7c0,0.7,0,1.3,0,2c1,1.6,1,6.4,2,8c1.1-0.8,0.9-0.6,3-1c0.2-2.2,2-15,2-15c1.3-1.6,0.6-1.1,3-2
	c1.3,2.3,1.2,1.8,2,2c1.7-1.7,1.5-2.8,4-4c0,0.3,0,0.7,0,1c0.8,1.1,0.6,0.9,1,3c-5.4,6.2,0.6,10.4-1,15c0,0.3,0,0.7,0,1
	c-2.3-0.7-4.2-3.4-5-2c-1,0.7-2,1.3-3,2c1.8,2.2,3.1,1.3,2,4c-2.8,2.7-6.8,2.6-8,5c3.2,5.3-4.9,11.2-6,18
	C268.1,394.6,275.6,399.7,276,411z"/>
<path class="st0" d="M372,350c-0.8,0.7-2.2,1.3-3,2c1,0,2,0,3,0c1.2-0.8,1.2-0.5,4-1c0-0.3,0-0.7,0-1C374.7,350,373.3,350,372,350z"
	/>
<path class="st0" d="M334,363c1.3,0,2.7,0,4,0c0,0.7,0,1.3,0,2C334.9,364.4,335.6,364.8,334,363z"/>
<path class="st0" d="M352,364c2.3,0.3,2.5,0.5,4,1c-1.9,5.1,1.2,2.6,0,10c-0.7,0-1.3,0-2,0c0-0.3,0-0.7,0-1c-3.7-1.9,0.5-1.6-3-3
	c-1.6,1.8-0.9,1.4-4,2c-0.5-1.5-0.7-1.7-1-4c0.8-1,0.4-0.3,1-2C348.8,366.2,350.7,365.3,352,364z"/>
<path class="st0" d="M292,387c-4.4,0.4-4.1-0.8-5,3c0.9,1.9,0.4,1.2,0,4c0.3,0,0.7,0,1,0c0-0.7,0-1.3,0-2c1.2-1.1,2.1-2.5,3-4
	c1.8,0.6,1,0.2,2,1c2.8,1,0.9,1.7,7,2c0,1.3,0,2.7,0,4c-1.7,0-3.3,0-5,0c0,0.7,0,1.3,0,2c3.7,2.3,5,3.8,5,10c-0.7,0-1.3,0-2,0
	c0,0.3,0,0.7,0,1c-0.3-0.3-0.7-0.7-1-1c-2.1-1-4.2-3.4-6-4c-1.1-0.4-3.7,2.8-7,1c-0.8-1-0.4-0.3-1-2c2.7-1.8,3.4-2.9,4-7
	c-1.7,0-3.3,0-5,0c-0.5-1.3-1.2-3-2-4c-1.8,2.5-1.8,2.6-6,3c-1.8-8.7-0.7-3.6,2-11c-3.8-1.3-4.1-3-5-7c0.3-0.3,0.7-0.7,1-1
	c2.5,0.6,3,2.3,4,1c2.1-2.4,1.9-5.4,5-7c1.2-0.8,1.7-0.8,4-1c0,0.7,0,1.3,0,2c-0.5,1.5,0.2,5.4,0,9c3.3-0.8,5-0.4,6,4
	C291.8,384.2,291.8,384.7,292,387z"/>
<path class="st0" d="M386,371c3.3,1.5,5.4,3.2,8,5c-0.4,3.4,1.3,7.2,2,12c-0.7,0-1.3,0-2,0c0,0.3,0,0.7,0,1c-0.3-0.3-0.7-0.7-1-1
	c-2.2-2.6-2-9.1-5-11c-0.3,2.3-0.5,2.5-1,4c-0.7-0.3-1.3-0.7-2-1c-0.6-1.7-0.9-3.2-1-6C384.9,373.1,385.3,372.2,386,371z"/>
<path class="st0" d="M352,377c0.1,3,0.8,2.7,0,4c-1.3,3.8-4,5-6,8c-0.3-0.3-0.7-0.7-1-1c-0.7-0.3-1.3-0.7-2-1c0.3-1,0.7-2,1-3
	C346.8,380.6,346.5,378,352,377z"/>
<path class="st0" d="M455,379c0,1,0,2,0,3c2,0,4,0,6,0c0,0.7,0,1.3,0,2c-2,0-4,0-6,0c-2.2,1.4-3.3,0.5-6,0c-0.6-1.8-0.2-1-1-2
	c0-0.7,0-1.3,0-2C449.9,379.3,451.9,379,455,379z"/>
<path class="st0" d="M324,380c3.2,0.8,1.5-0.5,3,2C323.4,381.6,324.2,382.6,324,380z"/>
<path class="st0" d="M471,380c2.3,0.3,2.5,0.5,4,1c0,0.7,0,1.3,0,2c-1.6,1.3-2,2.1-3,4c-1.8-0.6-1-0.2-2-1
	C468.3,383.2,469.8,382.3,471,380z"/>
<path class="st0" d="M446,391c0.4-2.1,0.2-1.9,1-3c1.2-0.8,1.7-0.8,4-1c1.4,1,3.9,1.6,6,2c0,1.3,0,2.7,0,4c-1.6,0.6-2.4,0.8-5,1
	C450.2,392.1,449.4,391.6,446,391z"/>
<path class="st0" d="M394,389c6.2,1.3,10.1,4.1,10,12c-1.5,0.5-1.7,0.7-4,1c-1-0.8-0.3-0.4-2-1C396.6,395.6,393,393.6,394,389z"/>
<path class="st0" d="M221,390c0,0.7,0,1.3,0,2c0.3,0,0.7,0,1,0c0-0.7,0-1.3,0-2C221.7,390,221.3,390,221,390z"/>
<path class="st0" d="M237,393c2.7,0,5.3,0,8,0c1.5,2.5,2.3,2.3,3,6c-1.7,1.7-3.3,3.3-5,5c0.7,0,1.3,0,2,0c1.3-2.3,1.2-1.8,2-2
	c0.8,1,0.4,0.3,1,2c-1.3,1.3-2.7,2.7-4,4c5.5,1.8,8.9,8.8,9,16c-0.3,0.3-0.7,0.7-1,1c-6.7-1.4-1.9-0.4-9,1c-3.2-6.9-10.3-9.9-8-17
	c-3.2-0.7-2.1-0.7-4-2C232.1,402.7,234.8,397,237,393z"/>
<path class="st0" d="M203,415c0-6.3,1.5-10.1,7-11c0.3,0.3,0.7,0.7,1,1c0.5,3.7,1,4.9,0,8c3.4-0.1,4.1-0.2,4,6c-1.8,1.4-2.8,0.7-1,2
	c0.5,1.8,2.1,5.9,3,4c4.7-7.6-1.3-23.6,1-31c-0.3,0-0.7,0-1,0c-5.9,8.2-17.3,11.6-23,20c1.7,0,3.3,0,5,0
	C200.2,414.8,200.7,414.8,203,415z"/>
<path class="st0" d="M148,397c4.6,0.3,5.9,1.5,9,3c0,4.8-0.3,2.2,1,6c-3.1,0.1-4,0.6-5,0c-4-1-5.4-2.8-8-5c0-0.7,0-1.3,0-2
	C146.3,398.3,147.1,397.9,148,397z"/>
<path class="st0" d="M239,397c1.7,0.9,1.3,0.9,3,0C241,397,240,397,239,397z"/>
<path class="st0" d="M352,398c2.5,1.3,0.7-0.4,2,2c-0.3,0-0.7,0-1,0c-1.5,4.5-4.9,7.9-7,12c-0.3,0-0.7,0-1,0c0-1,0-2,0-3
	C347.8,406.3,350.7,402,352,398z"/>
<path class="st0" d="M236,404c1,0.8,0.3,0.4,2,1C237,404.2,237.7,404.6,236,404z"/>
<path class="st0" d="M237,409c1,0.8,0.3,0.4,2,1C238,409.2,238.7,409.6,237,409z"/>
<path class="st0" d="M264,420c0.9-5.3,5.4-7.6,11-8c0.6,1.8,0.2,1,1,2c0.4-3,0.5-3.4,2-5c2.5,2.8,3.2,2.2,6,3c0.9,3,0.8,3.5,1,8
	c-3.1,1.7-6.5,2.1-12,2C269.7,419.2,269,419.8,264,420z"/>
<path class="st0" d="M279,416c0.7,0.7,1.3,1.3,2,2C280.3,417.3,279.7,416.7,279,416z"/>
<path class="st0" d="M220,429c0,0.7,0,1.3,0,2c0.3,0,0.7,0,1,0c0-0.7,0-1.3,0-2C220.7,429,220.3,429,220,429z"/>
<path class="st0" d="M146,433c0.5,2.1,0.9,3.6,2,5c0-1,0-2,0-3C147.3,434.3,146.7,433.7,146,433z"/>
<path class="st0" d="M239,474c2.1-0.4,1.9-0.2,3-1c-2.5-1.3-0.7,0.4-2-2c1.6-1.3,1.1-0.6,2-3c-0.3,0-0.7,0-1,0c-1,0.8-0.3,0.4-2,1
	C239,470.7,239,472.3,239,474z"/>
<path class="st0" d="M273,484c1,0,2,0,3,0c2.3,3.4,4.4,3.4,5,9c-0.3,0.3-0.7,0.7-1,1C276.7,491.9,273.6,488.8,273,484z"/>
<path class="st0" d="M182,489c2.1,0.4,1.9,0.2,3,1c0.8,1.1,0.6,0.9,1,3c-1.5,0.5-1.7,0.7-4,1c-0.3-0.3-0.7-0.7-1-1
	C181.5,491.5,181.7,491.3,182,489z"/>
<path class="st0" d="M263,495c1.7,0,3.3,0,5,0c0.7,2,1,4.7,1,8c-1.5,1.6-0.8,1.8-3,3c-1.4-2.5-1.9-3.5-2-8
	C263.2,496.9,263.4,497.1,263,495z"/>
<path class="st0" d="M224,496c1.3,0,2.7,0,4,0c0,1.3,0,2.7,0,4c-2.1-0.4-1.9-0.2-3-1c-0.3,0-0.7,0-1,0C224,498,224,497,224,496z"/>
<path class="st0" d="M239,503c2.5,1.3,0.7-0.4,2,2c-1.3,1-2.7,2-4,3c0-0.7,0-1.3,0-2C237.9,505.1,238.3,504.2,239,503z"/>
<path class="st0" d="M64,506c0,1,0,2,0,3c-3.7,2.4-4.4,3.9-11,4c-0.3-1-0.7-2-1-3c0.3-0.3,0.7-0.7,1-1C59.3,508.9,59.1,507,64,506z"
	/>
<path class="st0" d="M211,507c2.1,0.4,1.9,0.2,3,1c-0.3,0-0.7,0-1,0C211.5,508.7,209.9,508.9,211,507z"/>
<path class="st0" d="M82,536c0,1.3,0,2.7,0,4c-1.5,0.5-1.7,0.7-4,1c-3.2-3.3-6.8-2.8-7-3c-3.4-5.1,1.6-7.7,3-11c-0.3,0-0.7,0-1,0
	c-1.3,1.6-0.6,1.1-3,2c-0.7-0.7-1.3-1.3-2-2c0.3-1,0.7-2,1-3c2.5-1.5,2.3-2.3,6-3c1.5,1.7,0.7,1,2,1c1.5-1.6,1.6-2,2-5
	c-0.3-0.3-0.7-0.7-1-1c-4.5,2.2-13.4,9.3-17,8c-0.3-0.3-0.7-0.7-1-1c5.3-3.9,8.8-8.7,17-10c2.8,4,11.7,2,14,10c-1.3,0-2.7,0-4,0
	c-0.7-0.7-1.3-1.3-2-2c0,0.3,0,0.7,0,1c1.7,1,3.3,2,5,3c-0.3,0.3-0.7,0.7-1,1c-2.2,1.4-3.3,0.5-6,0c-0.2,3.9,0.1,4.8-1,8
	c-1.7-1-3.3-2-5-3c0,0.3,0,0.7,0,1c0.8,1,1.4,2.7,2,4C80,536,81,536,82,536z"/>
<path class="st0" d="M185,516c1.8,0.6,1,0.2,2,1c3.4,3.2,4.1,7.1,4,14c-1.6,0.6-2.4,0.8-5,1c-1.5-2.8-2-5-2-10
	C184.8,520.5,184.3,518.4,185,516z"/>
<path class="st0" d="M321,517c0.1,2.2-0.2,0.7,2,1c0-0.3,0-0.7,0-1C322.3,517,321.7,517,321,517z"/>
<path class="st0" d="M364,521c0,1,0,2,0,3c1.3,0,2.7,0,4,0c-0.3-2.5-0.7-0.5,0-3c1.8,1,1.7,1.3,4,2c-0.5,4.4,0.5,3.8,1,9
	c-1.5,0.5-1.7,0.7-4,1c-2-3.8-2-2.9-5-4c-0.8-2.1,0-1.8-1-3c-0.7,0.6,0,1.4-2,1c0-0.3,0-0.7,0-1c-0.8-1.2-0.8-1.7-1-4
	c0.3-0.3,0.7-0.7,1-1C362,521,363,521,364,521z"/>
<path class="st0" d="M322,523c2.8,4.5,6.9,8.7,14,9c0-0.3,0-0.7,0-1c-4.1-2.8-0.6-4.6-4-7C330,522.7,325.5,522.9,322,523z"/>
<path class="st0" d="M346,527c0.1,5.3-0.4,3.3-2,8c5.5,0.3,9.4,1.9,14,3c0-2,0-4,0-6c-7-5.4-6.7-5.9-18-8c-0.3,0.7-0.7,1.3-1,2
	c-0.3,1-0.8,0.4,0,1c0,0.3,0,0.7,0,1C342.3,526.3,341.4,526.6,346,527z"/>
<path class="st0" d="M60,527c1.3,0,2.7,0,4,0c0,1,0,2,0,3c1.3,0,2.7,0,4,0c0.3,0.3,0.7,0.7,1,1c-0.6,1.8-0.2,1-1,2c-1.4,1-3.3,1-6,1
	C60.7,531.6,60.2,531.2,60,527z"/>
<path class="st0" d="M381,535c1,0.3,2,0.7,3,1c-0.3,0.7-0.7,1.3-1,2c-1,0.3-2,0.7-3,1C380.3,536.7,380.5,536.5,381,535z"/>
<path class="st0" d="M451,550c-0.3,2.3-0.5,2.5-1,4c3.9,0.6,3.8,0.7,5,4c-0.3,0-0.7,0-1,0c-2.5,2.6-4.6,3.1-10,3
	c-0.7-0.7-1.3-1.3-2-2c0.3-1,0.7-2,1-3c1.9-1.9,2.2-3.7,5-5C449.1,550.2,448.9,550.4,451,550z"/>
<path class="st0" d="M157,551c3.5,1.4,3.1,2.3,3,7c-1.2,1.5-2.2,4.2-3,6c-0.7,0-1.3,0-2,0c0-1,0-2,0-3
	C154,559.2,156.2,554.2,157,551z"/>
<path class="st0" d="M391,552c1.7,1.6,3.3,2.3,6,3C395.3,553.4,393.7,552.7,391,552z"/>
<path class="st0" d="M186,554c2,2,4,4,6,6c0.3,5.9,0.4,8.3,0,14c-1.8,1.3-1.7,2-4,3c0-0.3,0-0.7,0-1c-3.4-2.2-4.8-4.4-5-10
	C182.9,563.7,184.8,556.3,186,554z"/>
<path class="st0" d="M312,554c-1.5,1.8-3.5,2.2-5,4c0.3,0,0.7,0,1,0c1.6-1.2,4.4-1.7,6-3C313.3,554.7,312.7,554.3,312,554z"/>
<path class="st0" d="M398,555c1.4,1.3,1.8,1.4,4,2C400.6,555.7,400.2,555.6,398,555z"/>
<path class="st0" d="M193,556c4.5,0.6,9.5,2.4,14,4c0,0.3,0,0.7,0,1c-2,0-4,0-6,0C198.4,559,195.1,558.6,193,556z"/>
<path class="st0" d="M318,558c0.3,1.3,0.7,2.7,1,4c0.3,0,0.7,0,1,0c0-1.3,0-2.7,0-4C319.3,558,318.7,558,318,558z"/>
<path class="st0" d="M388,561c2.3,0.3,2.5,0.5,4,1c-0.6,1.8-0.2,1-1,2c-0.3,1-0.7,2-1,3c-1.8-0.6-1-0.2-2-1c-0.8-1.1-0.6-0.9-1-3
	C387.8,562,387.4,562.7,388,561z"/>
<path class="st0" d="M315,562c-1.4,3.5-3.1,3.5-1,5c0.9,0.9,1.8,1.3,3,2c1.2-2.2,1.5-1.5,3-3C317,564.9,317.2,563.7,315,562z"/>
<path class="st0" d="M492,564c2.5,1.3,0.7-0.4,2,2c-7.7,1.8-15.2,5.1-24,7c0-0.7,0-1.3,0-2C476.9,570.4,487.9,568,492,564z"/>
<path class="st0" d="M330,566c3.8,0.5,4.2,1.4,8,2c-0.4,2.1-0.2,1.9-1,3c-1.1,0.8-0.9,0.6-3,1C331.8,569.6,330.8,570.2,330,566z"/>
<path class="st0" d="M342,574c0.3-2.3,0.5-2.5,1-4c0.7,0.3,1.3,0.7,2,1c0.3,0.7,0.7,1.3,1,2c-0.3,0-0.7,0-1,0
	C343.9,573.8,344.1,573.6,342,574z"/>
<path class="st0" d="M320,571c0,0.7,0,1.3,0,2c0.7,0,1.3,0,2,0c0-0.3,0-0.7,0-1C321.3,571.7,320.7,571.3,320,571z"/>
<path class="st0" d="M319,574c-0.3,0.7-0.7,1.3-1,2C319.7,574.6,319,574,319,574z"/>
<path class="st0" d="M441,574c1.3,0,2.7,0,4,0c4,6,5.4,6.9,5,16c-2.9,2.1-2.2,3.3-7,4c0-0.7,0-1.3,0-2c2.5-2,2.8-4.8,4-8
	c-1,0-2,0-3,0c-2.1,3.3-5.3,5.3-10,6c0-0.7,0-1.3,0-2c3.4-3.9,4.3-10.1,10-9C442.7,576.9,441.9,576.7,441,574z"/>
<path class="st0" d="M485,574c1,0,2,0,3,0c0,1.3,0,2.7,0,4c-1,0-2,0-3,0C485,576.7,485,575.3,485,574z"/>
<path class="st0" d="M318,577c-1.1,1.5-1.1,0.8-2,3c0.3,0,0.7,0,1,0c0.9-0.6,3.1-1.3,4-2C320,577.7,319,577.3,318,577z"/>
<path class="st0" d="M429,583c-4.3-0.1-6.2-0.8-9-2c-0.3-0.7-0.7-1.3-1-2c0.7-0.7,1.3-1.3,2-2c2.7,1,5.3,2,8,3
	C429,581,429,582,429,583z"/>
<path class="st0" d="M171,581c1.7,0,3.3,0,5,0c0.3,0.3,0.7,0.7,1,1c-0.6,1.8-0.2,1-1,2c-1.9,1.5-3.3,1.9-5,1
	C169.9,583,170.4,583.2,171,581z"/>
<path class="st0" d="M315,582c0,0.7,0,1.3,0,2c1,0.7,2,1.3,3,2C317,583.7,317.3,583.2,315,582z"/>
<path class="st0" d="M158,590c-0.8,2.3-2.7,1.6-1,4c0.7-0.7,1.3-1.3,2-2C158.4,590.2,158.8,591,158,590z"/>
<path class="st0" d="M152,591c1,0.8,0.3,0.4,2,1C153,591.2,153.7,591.6,152,591z"/>
<path class="st0" d="M324,597c0,0.7,0,1.3,0,2c0.3,0,0.7,0,1,0c0-0.7,0-1.3,0-2C324.7,597,324.3,597,324,597z"/>
<path class="st0" d="M129,607c4.3,0.3,8.7,0.7,13,1c-0.3,2-0.7,4-1,6c0.7,0,1.3,0,2,0c2.9-4.4,3.1-2.6,3-9c3.6-0.1,2.1-2.1,6-4
	c0,0.3,0,0.7,0,1c0.9,1.3,0.9,2.5,1,5c-3.4,3.7-3.6,8.1-9,10c-1.1,0.8-1.7,0.7-5,1c-0.3-0.7-0.7-1.3-1-2c0.7-0.7,1.3-1.3,2-2
	C133.3,614.2,129.5,613.3,129,607z"/>
<path class="st0" d="M186,614c1,0,2,0,3,0c1.9,2.9,3.3,3.5,4,8c-0.3,0.3-0.7,0.7-1,1c-0.3-0.3-0.7-0.7-1-1
	C187.8,620.1,186.4,618.9,186,614z"/>
<path class="st0" d="M159,645c0.7,0,1.3,0,2,0c0.3,1.7,0.7,3.3,1,5c-0.3,0-0.7,0-1,0c0-0.3,0-0.7,0-1
	C159.7,647.6,159.6,647.2,159,645z"/>
<path class="st0" d="M199,696c5.6,2,7.4,6.3,14,8c0,0.7,0,1.3,0,2c-0.7,0-1.3,0-2,0C207.1,702.4,201.4,701.1,199,696z"/>
</svg>
