<?xml version="1.0" encoding="utf-8"?>
<!-- Generator: Adobe Illustrator 19.0.0, SVG Export Plug-In . SVG Version: 6.00 Build 0)  -->
<svg version="1.1" id="Layer_1" xmlns="http://www.w3.org/2000/svg" xmlns:xlink="http://www.w3.org/1999/xlink" x="0px" y="0px"
	 viewBox="0 0 80 147" style="enable-background:new 0 0 80 147;" xml:space="preserve">
<style type="text/css">
	.st0{fill-rule:evenodd;clip-rule:evenodd;}
</style>
<path class="st0" d="M80,137l-12-26l2,26l-13,5l-12-3l-3-11l1-12l2-16l-4-11V79l1-6l9-5l15,38l-4-42l3-2l1-5l-4-1v-3h-3l-1,5l-6,1
	l-5-4l4-27l-4-1v-6l3-2v-5l3-4V6l-3-4l-7-2l-9,4l-1,5l3,6l-5,3l-5-4L25,3L9,5L7,17L1,27L0,45v13l6,6l9,1l7,22l-2,60l27-1L80,137z"/>
</svg>
